<?xml version="1.0" standalone="no"?>
<!DOCTYPE svg PUBLIC "-//W3C//DTD SVG 20010904//EN"
 "http://www.w3.org/TR/2001/REC-SVG-20010904/DTD/svg10.dtd">
<svg version="1.0" xmlns="http://www.w3.org/2000/svg"
 width="3464.000000pt" height="3464.000000pt" viewBox="0 0 3464.000000 3464.000000"
 preserveAspectRatio="xMidYMid meet">
<metadata>
Created by potrace 1.16, written by Peter Selinger 2001-2019
</metadata>
<g transform="translate(0.000000,3464.000000) scale(0.100000,-0.100000)"
fill="#000000" stroke="none">
<path d="M26952 19496 c-36 -34 -37 -36 -36 -104 0 -69 0 -70 -30 -85 -95 -45
-286 -219 -385 -350 -24 -31 -48 -57 -53 -57 -5 0 -7 -4 -4 -8 3 -5 -9 -16
-27 -26 l-32 -18 25 21 25 20 -48 -14 c-28 -8 -45 -10 -41 -4 3 6 0 10 -7 8
-40 -5 -89 3 -103 17 -9 9 -16 11 -16 4 0 -6 -4 -8 -10 -5 -5 3 -10 0 -10 -7
-1 -9 -3 -9 -9 2 -5 8 -11 54 -14 102 -4 70 -11 101 -36 153 -73 156 -267 276
-424 262 -89 -8 -197 -64 -275 -144 -80 -81 -139 -172 -212 -327 -105 -221
-170 -409 -300 -867 -44 -156 -83 -290 -85 -298 -4 -9 -17 -2 -46 24 -126 113
-309 125 -450 28 -37 -25 -71 -39 -108 -44 -98 -14 -146 -73 -137 -167 l5 -53
-33 6 c-41 8 -99 -15 -119 -47 -17 -26 -25 -87 -14 -105 4 -6 3 -15 -3 -18 -6
-4 -9 -1 -8 6 2 10 -27 13 -136 11 -77 -1 -142 -5 -145 -9 -3 -3 2 -3 12 0 9
4 17 2 17 -3 0 -8 -75 -4 -87 4 -1 1 9 6 23 13 15 7 22 7 18 1 -4 -6 -1 -9 5
-7 7 3 11 8 9 12 -3 6 37 35 66 48 18 8 71 54 132 115 136 134 161 252 67 303
-36 19 -65 13 -169 -33 -116 -52 -173 -63 -246 -46 -74 17 -118 33 -118 43 0
4 -4 6 -9 2 -5 -3 -13 -1 -16 5 -4 6 -2 9 3 8 17 -6 64 62 69 101 11 81 -27
139 -107 166 -68 22 -70 32 -6 27 64 -5 108 15 136 61 26 41 26 112 1 153 -33
55 -114 79 -178 52 -15 -6 -31 -11 -35 -10 -5 1 -8 -6 -9 -16 0 -10 -3 -12 -6
-4 -2 6 -9 10 -13 7 -9 -6 -3 41 7 57 3 5 12 7 21 3 9 -3 13 -2 8 2 -4 4 -20
8 -34 8 -19 0 -26 5 -23 15 2 8 5 29 8 45 4 29 4 29 -11 10 -14 -17 -14 -15 0
17 10 20 22 34 27 31 6 -3 7 -1 4 4 -14 23 83 203 110 203 9 0 95 -38 192 -85
207 -100 297 -126 431 -127 162 -1 273 49 449 200 53 45 130 110 171 143 95
77 100 84 100 137 0 35 -6 49 -30 74 -28 27 -36 30 -79 26 -38 -4 -62 -16
-122 -59 -137 -101 -144 -104 -239 -104 -79 1 -95 5 -220 54 -222 88 -246 93
-410 94 -208 2 -423 -39 -680 -128 -246 -86 -506 -235 -885 -510 -125 -90
-413 -296 -529 -378 -16 -12 -27 -16 -23 -11 3 5 2 16 -3 24 -7 11 -11 11 -23
1 -13 -10 -15 -9 -11 11 2 13 1 17 -2 10 -5 -10 -10 -9 -21 5 -14 17 -14 17
-9 0 3 -11 2 -16 -4 -12 -6 3 -10 12 -10 20 0 8 -5 17 -12 21 -7 5 -8 2 -3 -7
5 -8 -3 -4 -16 7 -57 51 -132 67 -196 43 -15 -6 -30 -10 -32 -9 -2 1 -7 -4
-11 -11 -5 -7 -11 13 -14 47 -35 359 -106 569 -258 771 -150 199 -338 300
-582 311 -131 5 -214 -5 -341 -45 -337 -106 -713 -429 -921 -793 -92 -161
-131 -320 -121 -495 20 -338 240 -638 592 -805 219 -104 356 -135 590 -134
149 1 182 4 265 26 52 14 96 24 98 23 15 -14 -282 -487 -318 -506 -8 -4 -64
-14 -125 -22 l-110 -14 -22 22 c-29 31 -86 48 -128 41 -40 -8 -95 -66 -95
-100 0 -19 -10 -27 -57 -45 -123 -47 -197 -110 -198 -169 l0 -38 -51 4 c-46 4
-54 1 -87 -28 -32 -28 -37 -38 -37 -76 0 -62 39 -104 101 -111 77 -9 139 41
139 112 0 22 4 25 34 25 19 0 68 13 109 30 75 30 258 83 264 76 6 -5 -146
-138 -227 -199 -176 -131 -371 -236 -561 -302 -98 -34 -100 -34 -132 -17 -24
13 -54 17 -117 16 -70 -1 -107 5 -205 33 -168 48 -339 105 -343 114 -2 4 -10
5 -19 2 -12 -5 -14 -3 -8 7 6 10 4 12 -8 7 -9 -3 -16 -3 -14 2 5 19 -175 180
-194 174 -4 -1 -6 5 -5 14 0 9 -5 18 -13 21 -9 3 -11 0 -6 -8 5 -8 4 -11 -3
-6 -5 3 -13 1 -15 -4 -3 -6 -4 -5 -3 2 2 7 -2 20 -9 28 -35 41 -79 244 -96
443 -9 107 -9 183 0 335 17 271 36 393 68 440 23 34 25 43 19 108 -6 80 22
217 90 425 30 93 35 120 28 148 -10 40 -62 81 -101 81 -29 0 -80 -28 -88 -47
-2 -8 0 -11 5 -8 18 11 10 -12 -9 -26 -20 -15 -168 -382 -197 -489 -9 -36 -25
-73 -34 -83 -16 -18 -18 -13 -22 85 -5 111 -13 135 -74 216 -47 63 -74 81
-125 88 -58 7 -107 -19 -134 -72 -11 -21 -21 -41 -22 -43 -1 -2 -26 7 -55 19
-40 18 -73 24 -133 24 -91 1 -141 -18 -215 -82 -24 -20 -41 -31 -36 -24 12 19
-12 79 -41 102 -39 30 -122 28 -157 -5 -14 -13 -26 -29 -26 -34 0 -6 -26 3
-59 19 -155 79 -401 57 -582 -51 -72 -43 -79 -45 -79 -26 0 47 -166 99 -320
100 -101 0 -150 -15 -216 -69 -51 -42 -57 -44 -73 -30 -31 28 -110 57 -174 63
-114 10 -230 -40 -327 -142 -87 -91 -101 -105 -106 -105 -3 0 -3 4 0 9 3 5
-35 12 -84 16 l-90 7 -25 52 c-54 114 -134 159 -272 155 -62 -2 -84 1 -106 16
-27 17 -38 18 -173 7 -130 -10 -151 -14 -209 -43 -35 -17 -76 -44 -92 -60 -29
-30 -91 -69 -79 -50 4 6 3 11 -1 11 -5 0 -14 15 -21 33 -25 69 -104 127 -175
127 -18 0 -38 5 -44 11 -20 20 -100 15 -131 -8 -24 -18 -31 -19 -46 -7 -10 7
-43 20 -72 30 -85 26 -234 9 -327 -38 -16 -8 -18 -6 -11 14 6 20 5 21 -10 9
-11 -10 -16 -10 -16 -2 0 14 -25 42 -32 36 -3 -3 -17 8 -31 25 -15 16 -31 30
-37 30 -13 0 -70 57 -63 63 3 3 12 3 21 0 9 -4 13 -2 9 4 -3 5 6 19 21 30 15
11 40 44 56 73 54 99 34 223 -46 295 -52 48 -99 67 -165 67 -48 1 -53 3 -53
24 0 36 -37 183 -63 249 -31 79 -100 191 -162 263 -208 244 -485 287 -840 130
l-101 -44 4 26 c9 64 -62 140 -133 140 -59 0 -120 -54 -131 -119 -3 -20 -20
-50 -36 -67 -32 -35 -52 -102 -43 -145 6 -25 1 -30 -62 -67 -83 -48 -260 -137
-290 -147 -31 -9 -30 6 6 80 42 89 105 165 137 165 39 0 82 36 93 78 9 29 7
43 -7 71 -26 54 -60 73 -139 78 -126 9 -261 -56 -357 -173 -150 -182 -201
-349 -145 -470 61 -128 250 -164 489 -94 35 11 65 18 67 16 2 -2 -9 -29 -23
-62 -34 -76 -105 -259 -156 -399 -21 -60 -42 -113 -46 -117 -4 -4 -8 11 -9 33
-6 96 -76 159 -176 159 -60 0 -104 -23 -141 -73 -31 -43 -30 -153 3 -197 17
-23 20 -35 12 -43 -6 -6 -11 -8 -11 -4 0 4 -17 0 -38 -9 -20 -9 -42 -17 -49
-18 -7 -1 -30 -18 -53 -38 -22 -20 -40 -31 -41 -25 0 7 -7 -4 -14 -23 -10 -25
-14 -29 -15 -15 l-1 20 -9 -20 c-7 -19 -8 -18 -13 5 -3 14 -10 70 -17 125 -26
241 -109 420 -274 593 -120 125 -267 228 -473 331 -680 340 -1591 340 -2309 0
-484 -229 -873 -628 -1053 -1082 -60 -151 -121 -398 -121 -492 0 -22 -3 -89
-6 -150 -11 -217 43 -416 160 -589 25 -38 45 -69 44 -70 -81 -30 -122 -86
-114 -153 7 -54 22 -79 64 -105 68 -42 180 -3 198 69 8 30 19 29 64 -7 58 -46
203 -117 305 -149 443 -142 1174 -116 1708 60 157 52 194 72 214 114 21 45 6
104 -34 131 -39 25 -94 21 -343 -25 -787 -147 -1217 -131 -1500 55 -81 53
-146 117 -189 189 -37 61 -104 237 -104 275 0 14 -4 71 -8 128 -7 99 -2 151
14 152 4 0 16 0 28 0 11 0 34 13 50 29 24 24 29 38 29 76 0 47 -19 77 -65 102
-18 11 -18 13 4 99 175 670 747 1180 1456 1298 154 26 166 27 325 31 337 8
673 -66 980 -216 338 -164 509 -351 565 -618 16 -75 21 -231 7 -231 -4 0 -22
4 -41 10 -48 14 -311 48 -417 54 -259 16 -496 -58 -679 -210 -43 -35 -57 -42
-99 -42 -27 -1 -65 -10 -87 -21 l-39 -21 -6 24 c-8 32 -44 64 -80 72 l-29 6 3
-46 c2 -25 0 -46 -5 -46 -5 0 -22 14 -39 31 l-29 30 -17 -22 c-22 -26 -23 -87
-2 -117 23 -33 71 -55 108 -48 l31 6 1 -58 c0 -45 6 -69 26 -104 22 -36 27
-59 29 -119 1 -41 -3 -85 -10 -96 -16 -31 -14 -99 5 -139 21 -44 56 -71 108
-85 85 -22 111 -32 129 -50 26 -27 118 -72 217 -105 80 -27 95 -29 250 -28
165 0 226 8 345 44 262 80 466 270 616 573 24 48 48 87 53 87 21 0 233 -113
249 -133 10 -12 15 -15 11 -8 -4 9 6 5 24 -8 18 -12 32 -24 32 -26 0 -17 -74
-192 -100 -235 -61 -104 -84 -125 -170 -160 -123 -50 -166 -113 -141 -208 12
-43 47 -78 90 -89 31 -8 87 7 216 57 137 54 243 118 329 200 l73 69 46 -54
c45 -51 166 -144 234 -178 l31 -17 -20 -37 c-49 -95 30 -212 135 -199 69 8
115 53 124 123 l5 38 127 1 c185 3 321 43 469 141 90 60 218 189 284 288 57
84 261 485 261 513 0 6 4 12 9 12 5 0 6 5 3 10 -3 6 -2 10 3 10 17 0 22 -30 7
-36 -8 -4 -15 -13 -15 -21 0 -9 6 -13 15 -9 9 3 15 0 15 -10 0 -10 6 -14 14
-11 12 5 12 0 5 -26 -16 -58 -11 -210 11 -278 36 -119 133 -241 225 -285 87
-41 219 -31 358 28 43 19 49 19 65 6 67 -59 168 -67 294 -24 l78 26 45 -29
c57 -36 130 -54 190 -48 l46 4 -20 -21 c-45 -48 -68 -176 -40 -227 10 -19 8
-20 -24 -14 -54 10 -110 -10 -150 -54 -62 -68 -62 -154 0 -222 65 -72 168 -77
235 -10 38 39 64 107 52 143 -5 18 -1 17 38 -10 133 -92 411 -169 690 -193
l146 -13 -5 -77 c-5 -66 -3 -84 17 -124 42 -86 196 -179 318 -192 42 -5 55
-10 62 -27 4 -12 20 -32 35 -46 22 -21 37 -25 86 -25 53 0 62 3 91 33 30 29
33 38 34 96 1 60 3 65 41 103 59 59 117 141 165 232 23 44 45 78 48 76 4 -2
39 11 79 30 40 19 69 30 66 25 -3 -6 1 -7 9 -4 9 3 16 10 16 14 0 4 9 10 19
13 22 5 111 -32 468 -196 435 -201 683 -294 1013 -379 454 -117 858 -189 1320
-235 125 -12 268 -17 500 -18 344 0 446 8 680 51 140 25 402 58 550 69 47 3
95 8 107 10 18 4 23 -2 33 -44 59 -247 336 -308 796 -175 354 102 683 275
1114 587 111 81 662 510 782 609 l46 38 64 -15 c90 -23 300 -31 394 -16 221
36 445 163 577 329 28 34 54 62 58 62 3 0 12 -13 18 -29 30 -71 136 -138 235
-148 70 -7 197 25 301 77 l79 40 31 -30 c74 -71 194 -89 317 -47 37 13 71 20
75 16 15 -13 118 -46 163 -53 91 -13 204 35 281 121 41 45 101 141 124 199 15
38 18 41 59 42 24 1 64 6 90 11 40 7 46 6 46 -8 0 -30 30 -135 54 -186 38 -85
121 -163 188 -180 18 -5 27 -17 35 -48 20 -75 92 -115 170 -95 55 14 108 104
90 151 -3 9 17 24 58 45 l63 31 69 -34 c151 -75 285 -62 399 37 43 38 107 131
139 201 41 91 58 132 61 146 4 21 27 31 41 19 9 -7 13 -7 13 0 0 6 24 10 59 9
l59 -2 22 -75 c12 -41 30 -91 41 -112 12 -23 17 -47 13 -62 -9 -37 13 -99 46
-131 30 -29 35 -30 128 -32 53 0 113 -6 132 -12 100 -31 288 -2 430 66 66 32
95 42 98 33 10 -30 78 -92 129 -117 69 -33 153 -36 228 -6 48 18 52 19 79 2
88 -53 199 -21 246 72 25 48 25 104 2 151 l-19 36 35 -2 c34 -2 37 -4 48 -51
26 -100 98 -162 217 -187 225 -47 547 151 693 426 42 79 49 153 18 204 -51 87
-174 78 -220 -16 -13 -28 -20 -33 -37 -27 -12 3 -33 7 -47 8 -14 1 -24 8 -23
15 2 6 -2 12 -7 12 -6 0 -5 8 2 19 9 15 9 23 0 34 -7 8 -10 23 -6 33 4 14 3
15 -4 5 -16 -23 -19 1 -11 84 17 170 -30 291 -136 348 -32 18 -58 22 -135 23
-70 1 -105 6 -132 19 -34 17 -48 17 -174 7 -171 -15 -234 -40 -326 -132 -35
-35 -73 -63 -89 -67 -36 -7 -106 26 -239 112 -219 143 -359 180 -529 140 -60
-14 -166 -61 -201 -89 -14 -10 -23 -11 -55 -7 -5 1 -2 8 8 15 17 13 17 14 0
20 -10 4 -14 4 -11 0 10 -10 -16 -33 -27 -24 -5 4 -23 10 -40 14 -28 6 -29 5
-11 -8 17 -14 17 -15 -10 -12 -15 2 -30 8 -32 15 -2 6 -8 9 -13 5 -5 -3 -9 0
-9 6 0 6 -3 9 -8 6 -10 -6 -58 20 -54 30 2 5 -2 10 -9 13 -7 2 -9 -1 -5 -8 5
-7 1 -9 -8 -5 -9 3 -14 10 -11 14 2 4 -9 6 -25 4 -16 -2 -32 1 -35 6 -3 5 -17
6 -32 4 -18 -4 -31 0 -40 12 -6 9 -31 36 -53 61 -32 33 -42 52 -43 79 -1 22
-5 33 -13 30 -22 -8 -47 156 -38 248 4 45 8 95 8 111 1 17 5 36 9 42 13 20 17
54 6 48 -5 -4 -7 -10 -4 -15 3 -4 -3 -14 -12 -21 -15 -12 -16 -12 -8 1 5 8 10
21 11 28 1 7 29 54 62 105 123 191 164 302 165 447 1 98 -26 174 -75 215 -28
23 -28 26 -14 47 9 12 16 42 16 66 0 82 -51 132 -134 132 -39 0 -52 -6 -84
-34z m143 -41 c26 -25 32 -63 15 -96 -9 -15 -21 -19 -68 -18 -63 2 -81 15 -82
62 0 38 40 77 80 77 19 0 40 -9 55 -25z m-1236 -430 c26 -30 31 -44 31 -86 0
-46 -1 -49 -19 -39 -16 8 -21 6 -26 -9 -3 -10 -21 -27 -40 -37 -19 -10 -35
-22 -35 -26 0 -5 -7 -8 -15 -8 -19 0 -84 -70 -85 -92 0 -9 -4 -19 -10 -23 -14
-8 17 87 60 188 38 88 86 167 100 167 5 0 22 -16 39 -35z m-5583 -45 c94 -46
168 -123 226 -236 118 -229 165 -488 139 -759 -12 -121 -50 -329 -73 -401 -12
-36 -16 -39 -58 -44 -28 -3 -40 -8 -32 -13 19 -13 4 -27 -29 -27 -21 0 -28 4
-23 13 8 12 -18 -7 -71 -54 -16 -15 -46 -32 -65 -37 -66 -21 -213 -33 -300
-26 -47 4 -102 7 -124 6 -23 -2 -45 3 -55 12 -9 8 -53 29 -98 46 -150 57 -277
157 -357 279 -51 78 -72 129 -91 223 -48 225 39 497 231 729 99 120 204 201
340 266 106 50 163 63 275 60 86 -2 103 -6 165 -37z m-8644 -66 c83 -27 130
-91 170 -231 20 -69 23 -101 23 -268 0 -155 -5 -214 -23 -320 -42 -233 -130
-547 -208 -735 -52 -129 -162 -339 -224 -429 -54 -79 -66 -91 -84 -85 -12 4
-43 9 -71 11 -90 7 -150 -56 -143 -150 2 -40 1 -42 -32 -49 -92 -20 -232 41
-342 150 -14 13 -80 96 -95 118 -18 28 -7 60 15 42 14 -12 14 -10 3 11 -11 19
-11 22 0 16 9 -6 11 -3 6 9 -4 10 -3 15 3 11 11 -7 56 21 53 33 -2 4 0 16 4
27 l6 20 8 -20 c7 -19 8 -19 8 2 1 12 5 23 9 25 13 5 49 99 57 146 4 28 11 40
18 35 7 -3 9 -3 5 2 -4 4 -2 15 5 23 10 13 9 14 -3 7 -21 -13 -41 -15 -34 -4
3 5 11 9 18 9 19 0 61 40 85 80 30 50 29 126 -3 173 l-25 36 86 258 c102 310
134 402 180 509 28 67 38 81 53 77 10 -3 43 2 73 11 40 12 64 27 91 56 44 49
56 77 56 135 0 54 -14 92 -46 126 l-24 25 29 46 c34 53 55 67 120 78 55 10
109 5 173 -16z m11038 -391 c-82 -179 -165 -406 -270 -737 -141 -445 -195
-591 -297 -811 -99 -212 -196 -352 -289 -416 -65 -45 -78 -118 -29 -169 52
-54 78 -51 232 28 158 80 217 104 325 132 114 30 279 24 243 -8 -58 -51 -530
-432 -553 -446 -11 -7 -12 -4 -3 12 16 29 14 98 -4 132 -45 86 -168 105 -237
35 l-25 -25 -40 39 c-65 65 -176 79 -244 30 -16 -11 -34 -17 -40 -13 -7 4 -9
3 -6 -3 4 -6 -2 -13 -14 -16 -16 -4 -18 -3 -9 8 7 8 7 15 1 19 -5 3 -12 0 -14
-6 -4 -10 -8 -9 -16 2 -6 8 -11 11 -11 6 0 -5 -7 -3 -15 4 -8 7 -15 9 -15 5 0
-5 -9 0 -20 10 -11 10 -17 21 -15 26 3 4 1 10 -5 14 -5 3 -10 1 -10 -5 0 -6
-5 -8 -10 -5 -6 4 -7 11 -4 17 4 6 3 8 -3 5 -13 -8 -95 47 -86 58 5 4 3 5 -3
2 -9 -5 -140 56 -154 72 -3 3 -11 6 -17 7 -28 2 -33 4 -31 13 2 5 -6 17 -17
28 -11 10 -24 25 -30 34 -5 9 -21 34 -36 55 -29 44 -69 139 -69 163 0 9 -4 22
-9 30 -8 13 -12 13 -27 0 -16 -13 -16 -12 0 13 12 18 16 37 12 52 -3 14 -1 28
4 31 6 4 8 9 6 13 -2 4 2 16 10 27 8 10 14 14 14 9 0 -6 -6 -16 -12 -24 -11
-12 -10 -12 5 0 12 8 16 21 13 34 -7 28 8 51 25 40 12 -6 12 -5 0 9 -9 12 -10
17 -2 17 7 0 9 5 6 10 -3 6 1 13 10 16 10 4 14 13 10 28 -5 17 -4 18 4 6 9
-12 11 -10 12 10 l1 25 8 -25 8 -25 1 25 c1 19 3 22 10 10 6 -8 7 -18 4 -24
-3 -5 -1 -6 6 -2 6 4 9 16 6 27 -4 13 -2 19 8 19 8 0 22 10 33 22 10 12 14 18
7 15 -6 -4 -14 -4 -17 1 -3 4 31 6 74 4 57 -3 88 0 109 11 23 12 40 13 72 6
28 -7 59 -6 92 1 46 10 51 9 80 -16 116 -98 271 -54 316 88 l12 38 32 -17 c40
-21 132 -22 172 -1 40 21 71 56 90 100 64 154 -109 315 -258 239 -20 -10 -40
-15 -43 -10 -3 5 0 9 6 9 6 0 9 4 5 9 -3 5 -1 12 5 16 18 11 11 113 -10 155
-11 22 -25 40 -30 40 -6 0 -10 6 -10 14 0 8 -9 18 -20 21 -25 8 -18 13 304
250 272 199 437 312 566 387 52 31 111 65 130 76 19 11 38 21 41 21 4 1 -19
-56 -51 -126z m695 -159 c26 -10 46 -59 36 -86 -21 -57 -79 -67 -117 -23 -31
36 -30 58 1 90 26 25 49 31 80 19z m-14201 -969 c55 -8 115 -15 135 -15 20 0
52 -9 71 -19 45 -24 44 -48 -2 -162 -111 -273 -253 -397 -474 -415 -178 -15
-320 57 -386 194 -26 56 -31 79 -31 137 0 145 75 238 222 277 86 22 327 24
465 3z m8409 -277 c-30 -251 -38 -627 -16 -757 4 -24 2 -32 -6 -27 -6 4 -11 0
-12 -11 -1 -17 -2 -17 -6 0 -2 9 -9 15 -13 12 -14 -9 -170 21 -215 41 -22 10
-46 17 -54 15 -7 -1 -10 2 -7 7 3 6 -7 18 -22 27 -30 20 -102 94 -102 106 0 4
-6 14 -14 21 -15 16 -66 170 -66 203 0 11 -6 27 -12 34 -10 11 -10 13 0 7 8
-5 12 0 12 15 0 84 149 311 218 333 12 4 20 11 17 16 -11 17 27 28 64 18 47
-13 135 -4 197 21 27 10 49 19 50 20 0 1 -6 -45 -13 -101z m-3698 -697 c17 -6
44 -18 60 -25 43 -20 124 -48 128 -44 2 2 12 -4 22 -12 17 -13 18 -13 10 0 -8
14 7 3 58 -41 17 -15 15 -16 -34 -7 -150 27 -392 123 -352 140 22 9 67 4 108
-11z m-2977 -66 c3 -3 5 -19 5 -37 0 -22 -8 -38 -27 -55 -36 -31 -61 -29 -98
7 -24 25 -29 36 -24 58 4 15 16 34 26 44 18 14 25 15 67 2 25 -8 49 -16 51
-19z m-5026 -109 c58 -44 28 -135 -45 -136 -35 0 -77 40 -77 75 0 56 78 95
122 61z m13954 -468 c5 -7 2 -8 -7 -3 -8 5 -11 4 -6 0 8 -10 117 -18 263 -19
92 -1 101 -3 93 -18 -8 -14 -5 -15 21 -5 16 6 27 14 24 19 -3 4 3 5 12 1 11
-4 13 -8 6 -11 -7 -2 -10 -7 -7 -12 6 -10 -11 -16 -95 -30 -84 -15 -489 -26
-475 -13 31 29 127 83 137 77 6 -4 8 -3 4 4 -3 5 0 13 6 15 7 3 14 6 15 6 1 1
5 -4 9 -11z"/>
<path d="M20397 18056 c-48 -18 -62 -29 -81 -70 -52 -110 20 -226 139 -226 67
0 111 27 137 86 38 88 -5 190 -90 214 -47 13 -58 12 -105 -4z"/>
<path d="M21911 17252 c-71 -36 -99 -118 -66 -193 24 -52 58 -69 139 -69 80 0
118 26 134 93 19 72 -4 127 -68 166 -43 26 -93 27 -139 3z"/>
<path d="M21568 17027 c-51 -43 -61 -92 -29 -141 21 -32 56 -55 84 -56 14 0
17 9 17 53 l1 52 34 -37 34 -37 16 22 c8 12 15 41 15 65 0 36 -5 49 -31 73
-40 37 -101 40 -141 6z"/>
<path d="M8823 17365 c-24 -10 -41 -11 -67 -4 -48 13 -107 -4 -145 -42 -31
-31 -57 -100 -47 -126 3 -8 1 -35 -4 -60 -31 -138 113 -254 247 -198 63 27
113 94 113 154 0 21 6 32 20 36 47 15 66 123 34 190 -16 34 -65 65 -101 65
-10 -1 -32 -7 -50 -15z"/>
<path d="M22604 19270 c-54 -22 -93 -105 -80 -171 27 -136 229 -159 282 -33
30 72 8 158 -51 194 -34 21 -111 26 -151 10z"/>
<path d="M27256 18529 c-71 -29 -102 -54 -133 -107 -25 -41 -28 -57 -28 -132
0 -96 14 -136 67 -187 44 -43 96 -63 160 -63 74 1 129 28 172 87 107 145 85
341 -46 409 -39 20 -134 17 -192 -7z"/>
<path d="M4794 17354 c-92 -45 -77 -175 23 -200 78 -20 150 65 122 145 -19 55
-91 82 -145 55z"/>
<path d="M7320 17147 c-53 -26 -72 -116 -34 -157 12 -12 18 -10 49 20 l35 34
0 -51 0 -52 33 10 c38 10 77 52 77 82 0 20 -4 22 -50 19 l-50 -4 0 56 c0 61
-10 68 -60 43z"/>
<path d="M6734 17101 c-90 -55 -54 -195 50 -195 68 0 116 47 116 115 0 22 -10
41 -34 65 -40 40 -83 45 -132 15z"/>
<path d="M18521 17079 c-63 -38 -71 -111 -17 -165 30 -30 40 -34 90 -34 91 0
152 18 181 52 39 46 29 120 -21 153 -34 22 -193 19 -233 -6z"/>
<path d="M7782 16993 c-12 -2 -37 -19 -56 -36 -88 -84 -37 -231 85 -244 81 -8
147 47 156 128 10 101 -79 175 -185 152z"/>
<path d="M12801 16433 c-57 -30 -76 -65 -76 -138 0 -103 56 -160 155 -160 90
0 149 53 158 143 5 60 -17 113 -61 144 -42 30 -130 36 -176 11z"/>
<path d="M12924 15550 c-36 -14 -64 -59 -64 -101 0 -45 39 -94 83 -105 27 -6
27 -6 27 47 l0 53 35 -34 c38 -37 50 -34 64 16 24 86 -61 158 -145 124z"/>
</g>
</svg>
