<?xml version="1.0" standalone="no"?>
<!DOCTYPE svg PUBLIC "-//W3C//DTD SVG 20010904//EN"
 "http://www.w3.org/TR/2001/REC-SVG-20010904/DTD/svg10.dtd">
<svg version="1.0" xmlns="http://www.w3.org/2000/svg"
 width="3464.000000pt" height="3464.000000pt" viewBox="0 0 3464.000000 3464.000000"
 preserveAspectRatio="xMidYMid meet">
<metadata>
Created by potrace 1.16, written by Peter Selinger 2001-2019
</metadata>
<g transform="translate(0.000000,3464.000000) scale(0.100000,-0.100000)"
fill="#000000" stroke="none">
<path d="M26992 19571 c-37 -10 -86 -52 -108 -93 -8 -15 -14 -50 -14 -77 0
-50 -1 -51 -52 -84 -74 -48 -122 -87 -209 -172 -53 -53 -79 -71 -86 -64 -8 8
-13 8 -17 0 -5 -7 -14 -8 -24 -2 -9 4 -39 13 -65 20 -26 6 -75 25 -109 41 -33
16 -64 27 -69 24 -5 -3 -6 3 -2 12 4 12 3 15 -6 10 -6 -4 -18 -2 -26 4 -8 6
-20 8 -27 4 -7 -4 -10 -4 -6 0 11 13 -109 132 -178 176 -290 190 -591 39 -797
-400 -100 -213 -175 -426 -282 -794 -70 -243 -83 -278 -96 -270 -5 3 -9 1 -9
-5 0 -5 -8 -10 -17 -10 -10 -1 -25 -1 -33 -1 -8 -1 -41 8 -73 20 -70 25 -180
28 -251 6 -27 -8 -74 -30 -105 -49 -31 -20 -77 -38 -104 -42 -30 -5 -68 -21
-99 -42 -28 -19 -47 -30 -44 -24 4 6 -5 9 -28 8 -33 -3 -34 -2 -39 39 -13 119
-126 168 -251 111 -32 -15 -58 -22 -61 -16 -4 5 -11 6 -17 3 -7 -4 -8 -2 -4 4
4 7 2 12 -4 12 -14 0 -158 149 -166 172 -3 10 -10 18 -15 18 -6 0 -7 9 -4 21
5 13 3 19 -3 15 -19 -12 -22 26 -3 52 42 60 35 162 -15 222 -14 16 -23 30 -19
30 4 0 2 7 -5 15 -15 18 -9 42 27 121 14 32 27 62 27 67 1 11 17 8 66 -15 275
-124 496 -128 687 -11 68 41 195 140 258 201 22 21 72 64 112 95 79 63 101
106 88 174 -8 46 -59 100 -106 114 -57 17 -100 1 -214 -80 -156 -112 -174
-113 -429 -17 -78 30 -176 61 -217 70 -183 42 -531 0 -817 -98 l-74 -25 7 38
c10 59 -13 129 -55 171 -96 96 -272 61 -319 -63 -30 -78 3 -193 66 -232 18
-11 32 -22 33 -25 0 -3 -57 -39 -127 -80 -173 -101 -298 -184 -531 -353 -108
-79 -226 -163 -260 -187 l-64 -44 -91 47 c-116 59 -252 158 -370 270 -20 19
-37 29 -37 23 -1 -6 -6 -1 -13 12 -7 12 -17 19 -22 15 -4 -4 -5 -2 0 6 4 7 3
16 -3 20 -7 4 -13 16 -15 26 -2 11 -10 34 -17 50 -136 315 -272 477 -483 575
-140 65 -286 88 -446 70 -199 -22 -389 -97 -585 -230 -271 -184 -543 -504
-641 -754 -54 -138 -65 -202 -61 -366 2 -126 6 -156 31 -230 109 -334 372
-581 756 -711 207 -70 459 -91 649 -55 14 3 19 3 12 0 -6 -3 -9 -10 -6 -15 3
-6 -1 -21 -10 -34 -19 -29 -20 -39 -3 -29 6 4 4 -2 -5 -13 -10 -11 -18 -27
-18 -37 0 -25 -19 -58 -30 -51 -6 3 -7 -1 -4 -9 4 -10 1 -16 -7 -16 -7 0 -9
-3 -6 -6 6 -6 -51 -94 -60 -94 -2 0 -1 5 3 12 5 7 3 8 -5 4 -7 -5 -10 -14 -7
-21 6 -17 -13 -35 -32 -28 -9 4 -13 2 -9 -4 4 -6 0 -14 -9 -17 -9 -3 -14 -12
-11 -19 3 -9 -6 -14 -27 -15 -17 -2 -58 -6 -91 -11 -55 -8 -62 -6 -93 17 -25
19 -50 27 -93 30 -78 6 -137 -27 -169 -94 -14 -28 -32 -49 -49 -55 -103 -39
-193 -109 -211 -164 -10 -30 -16 -35 -42 -35 -94 0 -168 -103 -139 -192 15
-46 70 -98 114 -108 20 -4 55 -4 79 0 24 5 44 8 45 7 1 -1 -17 -15 -40 -31
-22 -17 -37 -24 -33 -18 4 7 2 12 -3 12 -6 0 -11 -6 -11 -14 0 -12 -24 -24
-47 -24 -3 0 -9 -4 -12 -9 -10 -15 -73 -43 -82 -37 -5 3 -9 0 -9 -6 0 -6 -4
-8 -10 -5 -5 3 -10 2 -10 -4 0 -6 -7 -7 -17 -4 -10 4 -14 2 -9 -5 4 -6 -1 -11
-11 -11 -10 0 -34 -1 -53 -3 -20 -1 -43 1 -53 5 -10 4 -16 3 -12 -2 3 -5 1
-12 -5 -16 -5 -3 -10 2 -10 12 -1 17 -1 17 -11 -1 -9 -14 -13 -15 -19 -6 -4 7
-26 13 -48 14 -22 0 -38 4 -36 7 2 4 -11 7 -29 7 -31 0 -141 28 -162 41 -23
14 -79 29 -88 24 -6 -3 -7 -1 -3 5 4 7 2 12 -3 12 -43 0 -283 182 -378 287
-81 89 -183 193 -183 187 0 -4 -29 20 -64 53 -28 28 -36 92 -36 308 0 280 34
535 72 535 7 0 3 7 -8 15 -18 14 -18 14 5 10 19 -4 22 -2 13 7 -14 14 -16 32
-3 24 17 -11 24 29 27 156 3 133 18 205 76 387 40 125 36 177 -15 229 -30 30
-44 36 -89 39 -60 5 -111 -17 -137 -58 -15 -23 -15 -24 4 -9 16 12 16 9 -3
-11 -12 -14 -43 -75 -68 -135 -26 -60 -50 -114 -55 -120 -5 -6 -29 -8 -64 -4
-31 3 -55 2 -55 -3 0 -5 -7 -4 -15 3 -8 7 -15 9 -15 5 0 -4 -16 7 -36 25 -20
17 -47 36 -61 41 -31 11 -105 12 -135 0 -34 -13 -108 -77 -100 -86 4 -5 0 -4
-8 0 -37 22 -249 28 -285 8 -14 -8 -26 -8 -39 -1 -14 8 -17 7 -12 -1 4 -6 1
-12 -6 -12 -12 -1 -19 0 -43 6 -5 1 -32 12 -59 25 -59 27 -132 24 -175 -7 -27
-20 -27 -20 -86 -1 -89 29 -261 35 -358 14 -42 -10 -99 -25 -126 -35 -28 -10
-67 -17 -86 -16 -19 0 -35 -3 -35 -7 0 -9 -26 -5 -179 26 -68 14 -152 26 -186
26 -77 0 -177 -30 -228 -69 l-38 -29 -57 26 c-51 24 -69 27 -163 27 -106 0
-107 0 -192 -43 -47 -24 -93 -52 -102 -62 -13 -15 -22 -17 -42 -9 -13 5 -22 5
-19 1 2 -4 -4 -8 -14 -8 -10 0 -16 4 -13 9 3 5 -1 7 -8 6 -18 -3 -87 10 -119
22 -14 5 -42 10 -63 11 -20 1 -37 5 -37 10 0 4 -5 8 -11 8 -5 0 -8 -4 -5 -9 3
-5 -18 3 -47 19 -71 38 -146 54 -212 45 -43 -5 -59 -3 -81 12 -22 14 -45 17
-108 16 -104 -3 -269 -22 -279 -33 -5 -4 -25 -4 -45 1 -20 5 -60 9 -87 9 -28
0 -56 5 -63 12 -9 9 -12 9 -12 -1 0 -8 -6 -11 -15 -7 -8 3 -15 0 -15 -6 0 -7
-4 -7 -13 1 -20 16 -201 61 -245 61 -20 0 -50 -7 -65 -15 -16 -8 -25 -9 -21
-3 5 7 2 9 -8 5 -9 -3 -19 -3 -22 1 -7 6 -30 12 -53 14 -7 1 -13 5 -13 9 0 5
-7 6 -15 3 -8 -4 -15 -1 -15 5 0 6 -7 8 -15 5 -8 -4 -15 -1 -15 5 0 6 -11 11
-25 11 -14 0 -25 4 -25 10 0 5 -3 9 -7 8 -21 -4 -64 25 -106 72 -46 51 -85
122 -105 190 -5 19 -17 58 -27 85 -9 28 -17 56 -17 63 -1 6 -5 12 -9 12 -9 0
-41 56 -45 78 -1 7 -8 20 -16 29 -7 9 -29 44 -48 78 -42 74 -91 134 -182 223
-37 36 -64 70 -61 75 3 6 1 7 -4 4 -6 -4 -26 17 -46 46 -181 274 -408 386
-695 343 -63 -10 -142 -31 -208 -56 -102 -38 -124 -41 -124 -18 0 21 -43 69
-80 88 -107 54 -235 -7 -260 -124 -4 -20 -12 -31 -22 -30 -9 1 -14 -4 -12 -11
3 -7 -4 -11 -18 -10 -13 1 -28 -2 -35 -7 -8 -6 -14 -2 -18 14 -10 33 -53 76
-99 100 -28 14 -58 20 -107 20 -122 0 -243 -53 -334 -146 -113 -115 -191 -253
-217 -384 -21 -101 29 -225 111 -277 77 -48 215 -67 331 -45 40 8 57 7 68 -2
13 -10 14 -10 8 0 -4 6 -2 12 3 12 13 0 13 0 0 -38 -6 -19 -15 -29 -22 -25 -6
4 -8 0 -4 -10 3 -10 -6 -49 -21 -87 -24 -61 -32 -73 -67 -90 -22 -11 -33 -20
-25 -21 10 0 8 -3 -5 -9 -11 -5 -14 -9 -7 -9 7 -1 11 -5 8 -10 -6 -10 -20 -9
-48 4 -10 4 -16 10 -14 14 6 8 -37 14 -109 14 -67 1 -111 -17 -151 -63 -15
-16 -32 -26 -40 -23 -8 3 -12 9 -9 13 3 5 -3 7 -12 6 -10 -2 -38 3 -63 10 -25
8 -59 14 -77 14 -17 0 -34 4 -38 10 -3 5 -12 7 -19 4 -8 -3 -18 8 -26 28 -47
117 -210 308 -350 410 -613 446 -1484 577 -2288 343 -603 -175 -1112 -569
-1376 -1065 -116 -219 -179 -437 -217 -751 -15 -129 4 -316 47 -459 17 -59 83
-197 117 -244 l20 -28 -30 -24 c-62 -48 -80 -149 -40 -225 58 -109 222 -122
299 -24 l18 24 53 -35 c219 -146 545 -217 992 -217 370 0 721 54 1029 159 188
64 226 94 233 186 3 41 -1 60 -16 85 -23 37 -87 73 -128 73 -26 0 -169 -24
-418 -69 -280 -51 -487 -71 -717 -72 -192 -1 -281 10 -408 48 -205 61 -339
162 -409 309 -35 73 -36 78 -18 68 6 -4 4 2 -6 13 -24 27 -49 110 -36 118 5 4
9 11 9 17 0 6 -7 5 -17 -3 -16 -13 -17 -12 -4 3 20 26 30 13 25 -35 -2 -23 -1
-35 2 -26 3 10 14 19 25 22 18 5 20 13 18 127 -1 108 -3 121 -18 116 -14 -5
-13 -4 2 8 9 7 17 17 17 21 0 5 8 17 18 28 9 11 11 17 5 13 -17 -10 -16 4 3
43 12 24 15 46 10 79 -4 26 -7 55 -7 65 0 9 -4 15 -9 12 -4 -3 -6 4 -3 15 3
13 0 20 -8 20 -10 1 -9 4 3 13 13 10 16 27 15 68 -1 30 2 65 7 78 6 18 5 22
-5 15 -12 -7 -12 -5 0 9 7 9 11 24 7 32 -3 8 -1 15 5 15 6 0 7 5 4 10 -7 12
16 80 27 80 4 0 7 3 6 8 -4 16 26 81 35 75 6 -4 7 -1 3 6 -5 7 -1 20 7 29 7 9
17 25 20 35 4 10 39 66 79 125 89 132 282 328 418 425 183 131 462 252 682
296 173 35 284 44 488 38 256 -6 449 -42 670 -124 418 -155 660 -370 724 -643
20 -83 20 -108 0 -127 -13 -14 -17 -14 -25 -2 -7 11 -9 11 -9 -3 0 -10 -5 -18
-11 -18 -5 0 -8 -4 -4 -9 3 -5 0 -13 -6 -17 -8 -5 -9 -3 -4 6 6 10 4 12 -10 7
-9 -4 -86 0 -169 9 -341 37 -581 -8 -795 -150 -36 -24 -75 -53 -85 -65 -12
-13 -31 -21 -50 -21 -17 0 -48 -5 -70 -11 -35 -10 -41 -8 -65 14 -33 31 -64
47 -90 47 -17 0 -21 -7 -22 -32 -2 -33 -5 -75 -8 -93 0 -5 -23 13 -50 39 l-50
49 -20 -34 c-27 -44 -28 -113 -1 -157 23 -37 75 -72 108 -72 18 0 22 -5 22
-34 0 -19 14 -60 30 -91 34 -66 39 -129 15 -209 -9 -28 -12 -64 -9 -86 14 -89
91 -166 175 -177 27 -4 61 -18 89 -38 86 -62 192 -105 345 -140 151 -35 478
12 640 93 194 96 322 217 472 448 11 16 12 17 7 1 -5 -13 -2 -16 9 -11 23 8
187 -25 229 -47 14 -7 16 -5 12 9 -3 9 2 5 11 -10 14 -25 14 -31 0 -65 -9 -21
-35 -66 -58 -101 -39 -59 -49 -67 -132 -106 -96 -46 -135 -81 -154 -135 -39
-117 27 -229 141 -239 44 -3 71 3 158 36 183 69 300 134 393 220 l48 44 57
-54 c31 -30 87 -74 125 -98 l67 -45 -6 -56 c-8 -70 6 -116 49 -157 54 -52 131
-67 200 -38 41 17 93 75 102 114 l6 29 117 6 c349 17 618 197 827 552 52 88
63 99 82 83 9 -7 13 -7 13 2 0 7 7 10 15 6 8 -3 15 -1 15 5 0 6 5 7 10 4 6 -3
10 0 10 7 0 25 26 -16 48 -75 43 -116 156 -248 247 -288 78 -34 204 -31 317 8
l87 30 50 -24 c74 -37 156 -40 257 -11 84 25 83 25 144 -11 14 -9 36 -17 49
-19 13 -2 37 -10 53 -18 24 -13 27 -18 21 -42 -5 -15 -8 -48 -8 -74 0 -46 0
-46 -39 -52 -91 -15 -165 -108 -166 -208 0 -60 13 -95 53 -137 90 -94 230 -93
314 3 18 20 36 48 39 61 7 30 14 31 64 5 141 -72 369 -130 599 -152 l130 -12
-6 -42 c-9 -67 22 -147 76 -203 77 -76 225 -151 301 -151 18 0 34 -10 49 -31
35 -47 79 -69 139 -69 61 0 99 17 136 60 29 35 50 102 42 135 -4 16 6 34 41
71 48 51 137 181 148 215 4 11 11 16 17 13 7 -5 9 -1 5 9 -3 9 -1 19 5 23 7 5
8 2 3 -7 -4 -8 2 -4 14 9 12 12 25 22 30 22 4 0 21 11 37 25 16 14 43 32 61
40 31 15 35 14 200 -59 92 -41 227 -102 298 -136 289 -137 546 -239 776 -309
455 -137 981 -240 1519 -298 126 -13 253 -17 540 -18 392 0 442 4 695 50 157
29 241 40 450 60 197 18 185 19 185 -2 1 -31 37 -99 76 -143 110 -121 331
-158 601 -99 396 85 785 272 1233 590 144 103 264 194 668 513 l212 167 53
-10 c316 -65 602 -4 845 179 44 33 102 84 128 113 l48 52 39 -42 c113 -122
298 -135 511 -35 79 37 82 38 100 20 77 -72 244 -93 362 -43 30 12 38 11 96
-13 89 -37 208 -37 290 0 93 43 184 139 243 256 27 54 38 61 108 65 l37 2 28
-81 c44 -125 126 -226 208 -256 25 -9 37 -22 49 -54 40 -104 164 -144 255 -81
47 31 71 67 77 116 5 36 11 45 44 61 l38 20 63 -30 c90 -42 166 -56 237 -43
152 29 257 125 360 331 27 53 35 62 47 52 10 -10 14 -10 14 -1 0 8 17 11 51 9
l51 -3 24 -59 c13 -33 24 -77 24 -98 0 -123 104 -210 225 -189 25 4 61 2 95
-7 86 -22 274 -11 375 22 44 14 98 36 120 49 l39 22 34 -37 c80 -88 226 -127
336 -90 58 19 59 19 100 1 102 -46 225 0 275 104 l21 43 45 -41 c83 -78 236
-106 379 -69 208 53 429 239 542 454 24 46 28 67 28 125 0 46 -6 81 -17 102
-20 38 -76 83 -103 83 -23 1 -60 26 -45 31 31 11 -188 289 -227 289 -7 0 -11
4 -8 8 3 5 -23 35 -58 69 -56 54 -70 62 -134 78 -49 11 -87 15 -118 10 -34 -5
-55 -2 -82 11 -74 35 -313 12 -432 -41 -52 -24 -89 -34 -118 -32 -23 0 -42 4
-42 7 0 3 -15 5 -32 6 -55 1 -142 11 -161 19 -9 4 -28 5 -42 3 -13 -3 -22 -1
-19 3 3 5 -4 9 -15 9 -11 0 -22 4 -26 10 -3 5 -12 7 -19 4 -8 -3 -29 2 -47 12
-69 35 -186 70 -296 88 -13 2 -28 7 -35 13 -7 5 -31 15 -53 22 -37 13 -158 66
-212 93 -12 6 -20 16 -16 21 4 6 1 7 -8 1 -24 -14 -37 -13 -34 5 2 9 4 20 4
25 1 5 9 2 19 -5 15 -12 16 -12 5 2 -10 12 -8 28 7 78 37 117 18 221 -53 298
-54 59 -106 82 -182 83 -37 0 -55 4 -47 9 17 11 18 184 2 286 -11 69 -16 118
-24 226 -4 60 -35 141 -66 174 -17 18 -18 26 -9 59 36 131 -85 250 -219 217z
m92 -55 c49 -20 76 -60 76 -114 0 -41 -2 -44 -22 -38 -59 17 -147 25 -179 16
-19 -6 -35 -10 -36 -10 -2 0 -3 18 -3 40 0 32 7 46 35 74 30 30 43 37 88 45 4
0 22 -5 41 -13z m-1209 -251 c71 -37 135 -99 166 -162 31 -63 37 -185 15 -285
-8 -40 -15 -88 -14 -107 1 -25 -6 -40 -24 -56 -21 -18 -118 -188 -118 -207 0
-3 11 -9 24 -12 28 -7 56 -60 56 -105 0 -46 -38 -138 -67 -161 -40 -32 -104
-27 -147 10 l-34 31 -29 -38 c-15 -21 -61 -81 -103 -133 -41 -52 -78 -99 -83
-105 -172 -223 -334 -415 -349 -415 -10 0 -18 2 -18 5 0 3 86 114 190 247 249
317 368 488 387 552 8 30 25 60 41 74 15 12 34 29 42 37 9 7 39 61 68 119 44
89 51 108 41 124 -17 28 -3 69 29 86 33 17 52 81 52 174 0 147 -130 270 -229
216 -104 -56 -170 -216 -445 -1079 -53 -166 -109 -334 -124 -375 -16 -41 -36
-96 -46 -121 l-17 -46 -125 -1 -126 0 7 26 c9 35 5 33 67 42 l53 8 -51 1 -51
1 38 133 c20 72 63 224 94 337 215 770 393 1122 613 1205 59 23 148 14 217
-20z m-5476 -37 c119 -37 180 -74 271 -167 175 -178 272 -415 300 -736 10
-110 1 -344 -16 -447 l-6 -37 38 19 c65 34 175 25 226 -18 22 -19 7 -29 428
277 179 129 388 281 466 337 158 114 258 180 421 277 173 102 265 146 423 198
235 77 381 107 572 116 139 7 209 -5 330 -53 135 -55 265 -96 318 -101 84 -8
161 12 235 62 36 24 65 40 64 37 0 -12 -193 -173 -259 -217 -96 -63 -148 -79
-260 -79 -124 0 -172 15 -394 122 -160 77 -187 87 -245 90 l-66 4 -57 -104
c-137 -250 -195 -400 -343 -883 -25 -82 -48 -155 -50 -162 -2 -7 16 3 41 22
88 68 181 70 355 10 318 -110 354 -118 457 -91 35 9 96 31 137 50 41 19 75 31
75 27 0 -17 -59 -88 -117 -141 -149 -137 -343 -204 -493 -169 -24 5 -105 37
-179 71 -75 33 -162 66 -194 72 -64 13 -127 10 -132 -8 -73 -242 -107 -336
-122 -336 -12 0 -14 -3 -6 -11 16 -16 -39 -140 -69 -157 -22 -12 -251 -13
-263 -1 -6 7 40 126 56 145 7 9 35 15 73 16 l61 2 -62 3 c-50 3 -63 7 -63 20
0 14 10 15 68 10 37 -4 92 -4 122 0 l55 7 -50 7 c-27 4 -78 8 -112 8 -35 1
-63 4 -63 7 0 7 88 286 172 544 156 480 290 784 414 936 24 29 42 54 38 54
-20 0 -169 -43 -219 -64 -82 -33 -304 -160 -455 -261 -69 -46 -303 -212 -520
-370 -217 -158 -425 -308 -462 -333 l-67 -44 19 -39 c13 -25 20 -58 20 -98 0
-54 2 -59 24 -65 14 -3 39 -20 56 -37 28 -28 31 -37 28 -83 -3 -49 -4 -51 -30
-48 -16 2 -28 -1 -28 -8 0 -6 -8 -9 -17 -6 -10 3 -53 7 -97 8 -50 2 -80 7 -83
15 -3 8 -24 10 -73 6 -80 -6 -123 10 -169 63 -17 18 -32 30 -34 26 -3 -4 -8
-28 -11 -54 -7 -46 -8 -48 -41 -48 -19 0 -36 4 -39 9 -10 15 -95 32 -113 22
-10 -5 -38 -14 -63 -19 l-45 -10 70 -1 c49 0 65 2 55 9 -21 14 3 13 34 -1 14
-7 23 -16 20 -21 -3 -4 19 -5 50 -2 47 6 56 4 56 -9 0 -17 -58 -189 -85 -251
l-16 -38 -52 6 c-31 4 -47 3 -39 -2 18 -12 -31 -22 -104 -22 -43 0 -52 3 -48
15 4 11 22 15 58 16 42 0 47 2 28 10 -13 5 -35 6 -48 3 -13 -3 -24 -4 -24 -1
0 2 12 31 26 63 27 61 74 187 74 198 0 3 -27 -14 -59 -39 -75 -57 -184 -109
-286 -136 -111 -29 -318 -37 -440 -16 -84 15 -290 75 -282 83 2 2 172 4 378 5
205 1 383 4 394 7 20 5 20 5 1 12 -15 5 -8 10 34 24 30 10 84 33 122 52 37 19
68 32 68 30 0 -3 10 5 23 17 12 12 34 31 50 42 30 22 44 71 86 286 74 383 30
742 -126 1041 -219 421 -707 436 -1108 33 -217 -217 -336 -481 -337 -745 -1
-140 22 -235 84 -353 50 -93 161 -218 241 -269 47 -30 50 -33 27 -36 -41 -6
-50 -24 -10 -21 56 3 80 0 80 -12 0 -7 -28 -8 -91 -3 -68 5 -90 4 -85 -5 5 -7
45 -11 114 -11 79 0 122 -5 160 -18 29 -10 54 -21 57 -24 10 -9 -182 -20 -227
-13 -57 9 -193 100 -284 190 -167 165 -244 344 -244 565 0 201 61 350 236 580
252 331 613 562 929 594 72 7 197 -5 264 -26z m2319 -2 c117 -61 27 -239 -92
-184 -35 15 -58 54 -58 96 0 29 7 43 36 69 39 36 71 41 114 19z m4352 -1 c88
-45 89 -223 4 -390 -73 -143 -134 -225 -394 -526 -213 -246 -281 -339 -355
-485 -25 -48 -45 -90 -45 -93 0 -3 84 -6 188 -6 158 0 192 3 221 18 19 9 40
17 48 17 8 0 12 4 9 9 -3 5 1 11 9 15 12 4 14 -2 10 -36 -3 -23 -13 -57 -22
-75 -18 -38 -89 -103 -112 -103 -106 0 -402 -12 -456 -20 l-70 -9 88 5 c55 3
87 0 87 -6 0 -6 -11 -8 -25 -4 -23 6 -27 1 -46 -44 -16 -39 -27 -52 -52 -60
l-32 -10 28 -1 c31 -1 31 0 12 -71 -23 -84 -30 -227 -15 -304 21 -113 72 -166
165 -174 112 -9 250 87 437 305 73 85 78 93 98 171 10 39 13 42 48 44 37 1 37
1 5 5 -38 5 -39 12 -17 76 l16 47 76 1 c43 0 71 3 65 6 -33 13 -6 23 62 23 41
0 75 -4 75 -10 0 -15 -24 -64 -35 -72 -5 -4 -7 -10 -3 -13 3 -3 -9 -50 -27
-103 l-32 -97 -77 -3 c-96 -4 -92 -22 4 -22 l69 0 -35 -102 c-56 -159 -78
-211 -122 -276 -93 -137 -223 -166 -359 -80 l-47 30 60 27 c72 33 136 101 174
186 54 120 48 120 -73 0 -184 -184 -338 -283 -474 -305 -129 -21 -223 49 -265
197 -21 77 -34 232 -24 286 7 35 9 37 49 39 l42 1 -42 4 c-51 5 -51 1 -23 166
11 65 20 120 20 123 0 2 7 4 15 4 24 0 -102 110 -127 111 -36 2 -62 -2 -74
-12 -6 -5 -25 -6 -41 -3 -18 4 -33 1 -37 -5 -5 -7 4 -11 24 -11 27 0 29 -2 21
-19 -9 -15 -27 -20 -111 -25 -55 -4 -100 -11 -100 -15 0 -8 -90 -24 -97 -17
-8 8 10 36 23 36 17 0 19 20 2 21 -7 0 -4 4 7 9 11 5 65 9 120 10 l100 2 -99
13 c-54 8 -100 16 -102 18 -10 10 71 99 106 117 49 25 156 29 146 5 -6 -17 9
-21 19 -5 9 15 117 -45 174 -96 45 -40 48 -41 94 -34 62 9 72 20 18 20 l-43 0
7 33 c4 17 13 37 21 43 9 7 11 13 5 15 -7 3 8 60 37 144 153 442 386 865 620
1126 101 112 269 229 329 229 13 0 37 -7 53 -15z m-15260 -102 c154 -42 319
-230 391 -444 39 -118 52 -232 47 -416 -5 -151 -4 -153 17 -153 27 0 45 -18
45 -46 0 -29 -23 -46 -56 -42 -26 3 -27 1 -50 -102 -31 -137 -94 -349 -109
-364 -6 -6 -10 -16 -8 -22 8 -23 -28 -37 -87 -35 -35 1 -61 -3 -65 -10 -5 -8
5 -10 36 -9 68 4 99 1 99 -9 0 -6 -17 -8 -37 -5 l-38 4 32 -10 c31 -10 32 -11
18 -43 -11 -27 -20 -33 -57 -38 l-43 -6 38 -1 c20 -1 37 -5 37 -8 0 -12 -75
-186 -128 -298 l-57 -118 -75 6 c-52 4 -70 3 -60 -4 8 -5 39 -10 68 -10 28 0
52 -4 52 -9 0 -5 -27 -50 -60 -99 -99 -149 -242 -269 -390 -329 -128 -51 -308
-67 -442 -38 -66 14 -213 77 -253 108 -20 16 -19 16 7 17 50 0 41 20 -9 20
-49 1 -84 23 -136 86 l-18 21 61 -4 c55 -4 68 -10 132 -58 97 -73 189 -106
292 -107 71 0 87 4 154 37 41 21 92 53 114 73 l40 36 131 7 c150 8 149 8 122
18 -11 5 -22 5 -25 0 -6 -8 -83 11 -96 24 -4 4 -20 7 -36 7 -15 0 -28 2 -28 4
0 3 25 40 56 83 70 98 127 195 166 284 27 59 35 69 57 70 17 1 20 3 9 6 -23 6
-23 5 16 98 l33 80 86 2 c47 0 94 6 104 12 17 10 17 10 1 11 -10 0 -18 4 -18
9 0 4 -32 11 -72 15 -39 3 -74 8 -76 10 -2 3 2 21 9 41 11 30 14 33 20 17 7
-20 54 -32 114 -31 25 0 27 2 10 8 -19 8 -18 9 5 13 21 4 19 6 -10 7 -19 1
-44 6 -54 10 -40 16 7 24 99 17 62 -5 95 -4 100 3 3 6 1 11 -5 11 -6 0 -9 4
-6 9 8 12 -55 21 -158 21 -80 0 -88 2 -81 18 34 89 102 373 131 552 22 130 25
439 6 520 -55 233 -118 320 -269 371 -129 43 -291 20 -362 -52 -25 -25 -131
-196 -131 -211 0 -3 14 -8 30 -12 90 -18 109 -137 27 -171 -41 -17 -83 -9
-107 22 l-19 24 -21 -48 c-64 -140 -137 -335 -210 -558 -78 -238 -140 -419
-155 -457 -6 -14 -2 -18 16 -18 47 0 81 -70 47 -98 -14 -11 -66 -11 -85 1 -6
4 -15 3 -18 -3 -4 -7 -25 -8 -56 -4 -27 4 -49 4 -49 1 0 -16 35 -37 61 -37 16
0 29 -4 29 -10 0 -5 -16 -10 -36 -10 -21 0 -33 -4 -29 -10 3 -5 17 -10 30 -10
l25 0 -21 -52 c-28 -71 -35 -78 -83 -80 l-41 -1 43 -4 c23 -2 42 -8 42 -13 0
-6 -27 -70 -59 -145 l-59 -134 30 -43 c17 -24 45 -59 64 -78 l33 -35 -57 0
-57 0 -26 48 -26 48 -31 -51 c-28 -45 -35 -50 -67 -50 -20 0 -34 -4 -31 -9 4
-5 0 -12 -6 -14 -7 -3 -3 -6 10 -6 32 -1 28 -13 -25 -63 -90 -83 -182 -136
-338 -194 -110 -41 -125 -42 -125 -9 0 29 22 45 103 75 69 26 112 61 158 130
28 41 39 50 64 50 23 0 26 -3 15 -10 -13 -9 -13 -10 0 -10 8 1 24 7 34 15 18
14 17 15 -22 15 -23 0 -42 2 -42 5 0 3 9 24 21 47 21 41 109 267 109 280 0 9
-103 87 -165 124 -68 41 -287 143 -322 150 -27 5 -29 2 -57 -63 -16 -37 -36
-76 -44 -85 -8 -10 -12 -18 -8 -18 9 0 -55 -117 -108 -195 -22 -33 -71 -92
-111 -131 l-70 -72 -73 -1 c-39 0 -72 1 -72 4 0 3 18 22 41 42 56 51 119 141
173 249 30 61 52 93 66 97 23 6 27 27 5 27 -8 0 -15 1 -15 3 0 1 13 47 29 102
30 101 31 115 6 115 -8 0 -26 5 -42 11 -20 7 -24 12 -14 19 19 11 169 11 176
-1 4 -5 25 -9 48 -10 34 -1 37 -2 17 -8 l-25 -7 25 -7 c13 -3 35 -4 47 -1 54
14 331 -124 469 -234 l52 -41 12 45 c7 24 16 46 20 49 3 2 43 5 88 6 47 1 82
6 82 12 0 6 -30 8 -80 4 -44 -3 -80 -1 -80 4 0 5 9 32 20 61 11 29 20 54 20
56 0 1 -15 2 -34 2 -19 0 -41 3 -50 6 -31 12 -4 24 55 24 39 0 58 4 54 10 -4
6 -16 8 -27 4 -14 -4 -18 -2 -14 5 4 6 22 11 41 11 19 0 36 4 40 9 3 6 -43 9
-117 8 -104 -2 -127 1 -149 16 -15 10 -29 27 -32 37 -4 16 0 20 21 21 l27 1
-26 9 c-21 8 -25 15 -21 35 8 44 73 69 120 46 9 -5 36 -7 60 -4 37 4 42 7 42
28 0 62 46 124 114 153 38 17 39 19 91 166 99 284 211 545 297 692 l36 61 -96
-45 c-428 -199 -697 -166 -613 77 45 128 162 274 256 320 55 26 194 42 181 21
-4 -6 -16 -11 -28 -11 -11 0 -45 -25 -79 -60 -117 -120 -196 -344 -140 -394
20 -18 28 -19 84 -9 98 16 193 61 508 241 324 184 376 211 488 249 127 42 246
48 361 16z m8457 -188 c137 -68 233 -222 299 -483 24 -95 48 -339 38 -379 -6
-21 -6 -21 -41 3 -95 64 -233 31 -284 -68 -24 -47 -29 -141 -9 -179 17 -34 60
-78 90 -94 44 -23 111 -28 158 -12 39 14 42 13 38 -2 -2 -9 -10 -42 -17 -73
-11 -52 -15 -58 -38 -58 -14 0 -33 -5 -41 -10 -13 -8 -12 -10 3 -10 9 0 17 -5
17 -11 0 -6 -16 -9 -39 -8 -30 2 -47 -3 -77 -26 -22 -16 -43 -34 -49 -41 -25
-30 -91 -39 -280 -38 -161 0 -194 3 -216 17 -14 9 -50 25 -80 36 -78 27 -115
48 -190 103 -119 87 -210 223 -238 356 -29 140 1 337 74 483 103 203 271 377
450 466 115 58 181 73 285 67 60 -3 89 -11 147 -39z m-12052 -90 c349 -39 584
-108 865 -251 144 -73 278 -163 362 -242 208 -196 283 -378 304 -739 l7 -116
-27 7 c-18 4 -25 3 -21 -4 7 -12 -10 -13 -219 -15 -115 0 -152 2 -163 13 -9
10 -34 13 -81 12 -100 -4 -144 -1 -138 9 4 5 0 12 -6 15 -7 3 1 4 17 1 79 -13
212 -17 219 -6 5 8 -14 11 -66 12 -40 0 -82 4 -93 9 -32 14 154 1 215 -15 29
-8 57 -20 61 -27 5 -7 9 -10 9 -7 0 3 21 3 47 -1 31 -5 51 -4 57 4 6 6 13 65
15 131 12 430 -190 725 -650 944 -321 153 -621 221 -979 221 -353 0 -620 -59
-924 -204 -525 -250 -906 -735 -1026 -1306 -12 -58 -25 -108 -29 -112 -11 -12
-251 -15 -251 -4 0 21 19 124 30 165 l11 41 92 1 c78 1 85 3 47 9 -25 4 -64 6
-87 3 -54 -7 -54 -6 -7 129 153 440 490 812 964 1061 406 214 969 316 1445
262z m3496 -51 c14 -21 37 -77 50 -124 20 -74 23 -107 23 -250 -1 -204 -19
-330 -85 -595 -80 -321 -207 -628 -347 -842 l-61 -92 -37 11 c-110 30 -224
-52 -224 -161 0 -40 -1 -41 -35 -41 -35 0 -141 35 -150 50 -3 4 5 6 17 2 13
-3 19 -1 15 5 -5 7 1 9 15 5 16 -4 19 -2 13 8 -6 10 -1 12 19 8 20 -4 24 -2
16 7 -7 9 -6 16 5 25 20 16 19 86 -1 170 -18 73 -34 320 -21 320 5 0 6 14 2
31 -4 19 -3 29 2 26 5 -4 10 0 10 8 0 8 -4 12 -8 9 -4 -2 -11 0 -14 6 -4 6 -1
9 7 8 8 -2 12 4 10 16 -2 13 1 16 10 10 10 -6 11 -5 1 8 -7 8 -10 17 -7 21 3
3 7 16 9 29 1 12 19 91 39 173 45 183 48 195 52 220 6 37 41 160 59 205 10 25
18 55 19 67 0 11 4 19 8 17 3 -2 10 10 13 28 4 18 16 45 26 60 11 14 19 33 19
42 0 9 5 16 11 16 6 0 9 7 5 15 -3 8 -1 15 3 15 5 0 21 20 35 45 15 25 39 51
54 59 63 33 132 127 132 178 0 13 12 39 28 58 53 66 142 151 151 145 5 -3 13
0 17 6 5 8 2 10 -7 5 -8 -4 -3 2 10 14 21 18 26 19 45 7 12 -8 33 -32 47 -53z
m10846 -314 c-3 -10 1 -27 7 -36 10 -13 5 -36 -30 -128 -23 -62 -84 -239 -135
-394 -57 -171 -99 -282 -106 -282 -7 0 -13 6 -14 13 0 6 -4 3 -9 -8 l-9 -20
-1 20 c-1 11 -4 14 -7 8 -2 -7 -17 -13 -33 -13 -46 0 -97 27 -132 72 -59 74
-147 265 -133 288 4 6 3 10 -2 9 -4 -1 -15 -1 -23 1 -11 1 -9 4 5 10 18 8 18
9 2 9 -10 1 -15 5 -12 11 4 6 -1 7 -12 3 -29 -10 -9 6 164 134 173 129 396
283 410 283 4 0 19 9 33 20 32 25 44 25 37 0z m4861 -53 c30 -24 44 -69 37
-116 -19 -127 -105 -192 -194 -146 -60 31 -81 143 -38 206 43 64 148 94 195
56z m-14937 -68 c80 -56 73 -177 -14 -229 -97 -60 -224 32 -203 146 8 42 65
101 103 106 42 6 85 -3 114 -23z m8776 -231 c48 -45 19 -118 -48 -120 -62 -2
-91 72 -47 119 27 29 65 29 95 1z m-727 -158 c48 -67 2 -155 -81 -155 -34 0
-46 6 -70 33 -55 61 -26 140 61 165 26 7 69 -14 90 -43z m-2659 -146 c-51
-189 -65 -262 -51 -279 10 -12 10 -15 -1 -16 -10 0 -11 -2 -1 -6 17 -7 15 -19
-7 -40 -12 -12 -23 -45 -31 -95 -13 -77 -13 -78 -42 -78 -28 0 -29 1 -23 38 4
20 9 45 12 55 5 19 -7 23 -24 6 -33 -33 -191 -107 -256 -121 -75 -16 -131 2
-165 52 -21 32 -22 35 -5 41 10 4 31 8 46 8 15 1 30 7 33 15 3 8 30 17 67 22
59 9 56 9 -59 12 l-121 3 -7 37 c-11 72 -11 72 47 72 37 0 48 3 37 10 -8 5
-46 10 -83 10 -51 0 -67 3 -63 13 3 6 9 20 12 30 7 19 37 22 97 8 20 -5 39 -5
42 -1 7 12 -25 21 -49 14 -14 -4 -18 -3 -11 4 6 6 24 12 40 15 36 5 -17 7
-241 10 -139 2 -161 0 -160 -13 1 -9 -9 -16 -22 -18 l-24 -4 23 32 c33 44 103
88 153 95 50 8 103 -5 188 -45 35 -17 74 -30 88 -30 28 0 85 32 109 61 24 29
58 15 71 -30 15 -54 13 -81 -7 -82 -17 -1 -17 -2 0 -6 13 -3 17 -15 17 -48 0
-53 26 -135 49 -152 9 -7 35 -13 58 -13 36 0 48 6 92 47 28 26 51 54 51 62 0
38 137 428 147 418 2 -3 -10 -53 -26 -113z m10150 -43 c63 -21 146 -62 202
-99 34 -23 37 -27 21 -33 -15 -6 -13 -8 9 -8 15 -1 58 -19 94 -41 37 -22 72
-40 77 -40 6 0 3 -5 -7 -11 -12 -7 -40 -7 -90 1 -40 7 -84 10 -97 8 -49 -7
146 -32 240 -30 125 2 171 20 233 89 70 77 118 102 218 113 46 6 102 10 123
10 34 0 37 -2 23 -12 -9 -7 -21 -26 -27 -42 l-11 -29 -129 6 c-108 5 -128 3
-123 -9 3 -9 -5 -18 -22 -24 -15 -6 -26 -12 -24 -13 2 -2 90 0 194 4 105 4
208 4 230 -1 43 -10 58 -5 35 11 -8 5 -26 7 -38 4 -15 -4 -21 -2 -17 5 3 5 30
11 58 12 41 1 36 3 -28 7 l-80 6 64 23 c109 38 222 25 251 -27 15 -29 13 -31
-27 -33 -38 -1 -38 -1 7 -7 44 -6 45 -7 52 -51 5 -25 6 -56 3 -70 -2 -14 -7
-51 -11 -84 -3 -32 -23 -131 -45 -220 -46 -186 -58 -278 -39 -301 8 -10 30
-15 65 -15 117 0 255 115 345 285 17 33 37 60 43 60 25 0 18 -53 -13 -106 -84
-142 -202 -254 -339 -322 -82 -41 -88 -42 -181 -42 -76 0 -102 4 -123 18 -64
41 -88 134 -68 254 24 138 75 338 90 351 8 6 25 12 38 12 13 0 26 6 29 14 3 8
30 17 67 22 l62 9 -98 3 c-66 2 -99 7 -102 15 -2 7 -6 31 -9 55 l-6 42 32 0
c25 0 29 3 18 10 -21 14 -73 13 -64 -1 4 -7 -7 -10 -32 -9 -88 4 -130 0 -114
-11 12 -8 9 -10 -11 -6 -23 3 -31 -3 -55 -45 l-28 -48 -78 0 c-42 0 -80 -4
-83 -10 -4 -6 17 -10 57 -10 86 0 95 -7 76 -57 -15 -36 -108 -337 -108 -348 0
-3 6 -5 14 -5 20 0 30 -38 15 -56 -7 -9 -23 -14 -35 -11 -18 3 -26 -6 -52 -59
-44 -88 -83 -129 -148 -154 -62 -23 -75 -24 -124 -10 -46 13 -93 55 -118 106
l-21 40 28 -4 c15 -2 44 3 64 11 45 19 65 57 111 208 45 147 45 149 65 150 14
1 14 2 0 6 -11 3 -15 12 -11 28 4 21 10 25 43 25 21 0 41 5 44 10 4 6 -10 10
-35 10 -36 0 -41 2 -35 18 4 9 15 40 25 68 l18 51 -47 -5 c-37 -3 -58 1 -98
21 l-50 26 5 -89 c4 -68 2 -90 -8 -90 -8 0 -10 -8 -7 -22 9 -34 -11 -104 -58
-204 -80 -167 -237 -291 -413 -325 -98 -19 -237 -8 -300 24 -49 24 -51 25 -57
7 -8 -24 -42 -35 -60 -20 -21 17 -19 46 5 63 19 13 19 14 -10 54 -88 119 -103
344 -39 541 16 47 18 67 10 75 -17 17 -13 27 12 28 18 1 17 2 -7 9 -16 5 -45
25 -65 43 -20 19 -47 40 -61 47 -28 15 -76 16 -93 2 -14 -12 -229 -7 -271 5
l-28 9 33 43 c53 69 80 84 154 89 55 4 65 2 65 -12 0 -18 15 -22 25 -6 14 22
166 -79 239 -160 21 -23 39 -40 40 -38 71 102 77 108 119 109 l42 1 -30 13
-30 14 34 1 c27 0 31 3 22 13 -12 16 4 26 104 63 77 29 172 31 246 5z m-15097
-2 c-3 -6 1 -10 12 -9 11 1 38 2 62 1 55 -1 87 -34 109 -112 l16 -56 36 41
c88 100 154 129 208 91 29 -20 62 -107 44 -113 -11 -4 -11 -6 0 -13 11 -7 9
-9 -6 -9 -11 0 -33 -9 -50 -20 -24 -16 -48 -20 -120 -21 -94 -1 -79 -15 18
-18 27 0 47 -4 45 -8 -11 -26 -82 -123 -90 -123 -5 0 -6 -4 -3 -10 3 -6 -1 -7
-10 -4 -8 4 -21 2 -28 -4 -6 -5 -21 -12 -32 -15 -11 -3 -1 -4 23 -1 52 7 57
-11 6 -21 -50 -9 -184 4 -184 19 0 6 22 47 49 91 27 44 45 82 40 83 -5 2 -9
16 -9 30 0 36 -30 84 -74 117 -30 23 -42 26 -73 20 -44 -8 -91 -40 -149 -102
l-41 -44 -111 -3 -110 -2 21 23 c19 20 32 23 102 24 54 0 74 3 60 9 -11 5 -41
6 -67 3 -27 -3 -48 -3 -48 0 0 21 185 128 264 153 52 16 100 18 90 3z m3551
-33 c60 -30 85 -64 85 -115 0 -48 -17 -81 -42 -82 -21 0 -21 -1 -4 -8 17 -7
10 -18 -59 -89 -75 -79 -79 -82 -123 -82 l-46 0 44 45 c30 30 39 45 28 45 -22
0 -33 37 -18 55 18 21 46 18 63 -5 12 -18 15 -18 20 -5 4 10 19 15 42 15 20 0
34 4 31 9 -3 5 -14 8 -24 6 -9 -1 -12 0 -7 2 6 2 12 23 13 47 2 54 -16 72 -86
86 -74 14 -106 4 -165 -50 l-52 -47 -120 -7 c-65 -3 -121 -10 -125 -15 -7 -11
-80 -24 -80 -14 0 5 13 23 29 41 27 29 35 32 88 32 41 0 54 3 43 10 -8 5 -30
10 -47 10 -18 0 -33 4 -33 9 0 20 134 94 202 111 23 6 57 15 73 20 17 5 71 8
122 6 76 -3 102 -8 148 -30z m8168 20 c20 -8 54 -27 75 -42 l37 -29 -65 -6
-65 -6 72 -1 c64 -2 74 -5 92 -28 12 -15 21 -31 21 -35 0 -15 -34 -10 -65 11
-54 36 -131 17 -204 -49 -18 -17 -43 -31 -55 -32 -21 0 -21 -1 -1 -9 23 -10
-214 -14 -240 -4 -14 6 -14 9 0 30 13 20 13 24 1 24 -22 0 -39 28 -32 55 5 20
13 25 37 25 22 0 32 -6 36 -19 4 -17 11 -13 54 29 92 91 200 122 302 86z
m-8986 -23 c58 -10 89 -20 81 -25 -7 -4 -74 -8 -148 -9 -143 -2 -142 -5 10
-17 84 -7 92 -9 70 -20 -14 -7 -52 -16 -85 -21 l-60 -9 58 -1 c32 0 57 -4 55
-8 -2 -5 -12 -25 -23 -46 l-20 -39 -80 6 c-50 3 -69 2 -50 -3 17 -5 49 -9 73
-10 25 -1 42 -6 42 -13 0 -7 -14 -56 -32 -110 l-32 -98 -56 0 c-74 0 -104 -19
-35 -22 28 -1 58 -1 68 -1 14 0 17 -5 13 -21 -13 -44 -65 -310 -62 -313 2 -2
19 21 38 50 59 89 136 175 202 227 51 40 65 57 77 97 14 45 17 48 54 52 l40 5
-38 5 -38 6 28 55 28 55 68 3 c60 3 67 5 56 18 -11 14 -1 15 89 12 56 -2 102
-7 102 -11 0 -4 -10 -22 -22 -40 -17 -24 -29 -31 -47 -29 -15 2 -21 0 -16 -7
3 -6 11 -9 16 -6 17 11 9 -13 -37 -109 l-47 -96 -76 0 c-53 0 -71 -3 -61 -10
8 -5 41 -10 73 -10 56 0 57 -1 51 -25 -8 -31 -6 -31 47 0 27 15 61 25 89 26
37 1 40 3 17 8 -27 6 -26 7 45 58 61 44 80 53 116 53 26 0 41 -4 37 -10 -3 -5
-11 -10 -17 -10 -6 0 -16 -6 -22 -14 -19 -23 -261 -192 -305 -212 l-40 -19 -1
-77 c0 -167 69 -222 254 -198 94 12 150 38 223 104 72 63 243 251 243 265 0 6
10 11 23 11 16 0 18 3 9 9 -21 13 3 91 28 91 10 0 22 5 25 10 3 6 -3 10 -14
10 -12 0 -21 1 -21 3 0 9 59 177 69 194 8 17 28 23 103 32 64 8 94 9 96 2 2
-6 16 -11 30 -10 l27 1 -25 8 c-21 7 -19 8 18 9 47 1 48 0 26 -34 -21 -33 -10
-32 35 4 37 29 82 43 100 31 6 -3 -9 -26 -37 -53 -36 -35 -59 -50 -93 -56 -24
-5 -34 -9 -21 -10 13 -1 21 -5 18 -10 -7 -10 -56 -2 -56 10 0 12 -147 12 -154
0 -3 -5 28 -11 68 -13 41 -2 78 -6 81 -10 10 -10 -32 -161 -75 -271 -70 -178
-159 -300 -251 -345 -67 -32 -151 -30 -220 6 l-54 28 -54 -33 c-70 -42 -109
-53 -194 -53 -101 0 -196 25 -265 70 -107 69 -152 153 -161 300 l-6 95 -85
-85 c-137 -138 -221 -278 -264 -438 l-24 -89 163 -6 c180 -7 424 -31 549 -53
45 -8 96 -16 114 -18 128 -16 667 -161 872 -235 l55 -20 -131 0 c-101 -1 -139
-5 -164 -18 -53 -26 -229 -4 -390 48 -69 22 -192 58 -275 81 -82 22 -159 48
-169 57 -12 10 -20 12 -23 5 -3 -8 -27 -6 -81 7 -166 38 -511 87 -532 74 -4
-3 -10 -14 -13 -25 -4 -16 1 -22 21 -27 82 -20 713 -272 736 -294 6 -5 -19 -9
-64 -9 -94 0 -88 -9 8 -11 40 -1 75 -6 78 -10 3 -5 15 -9 27 -9 18 0 19 2 7
10 -36 23 12 4 189 -74 244 -109 528 -221 711 -281 144 -47 186 -65 133 -58
-15 3 -39 0 -53 -6 -21 -8 -15 -10 36 -10 34 -1 77 -3 95 -6 l34 -6 -30 14
c-27 12 -13 14 155 20 102 3 232 3 290 -2 61 -5 119 -4 139 1 25 7 36 6 42 -4
8 -11 11 -11 18 1 7 10 20 12 52 7 24 -4 41 -5 38 -2 -3 3 -77 30 -165 60 -87
30 -258 91 -379 136 -121 45 -283 104 -359 131 -77 27 -142 51 -144 54 -3 3 6
5 20 5 13 0 28 3 31 7 9 8 213 7 266 -2 23 -4 41 -11 41 -16 0 -5 27 -9 61 -9
37 0 58 4 54 10 -3 6 -20 10 -36 10 -17 0 -28 4 -25 9 10 15 80 18 111 5 l30
-13 -34 -1 c-57 0 -27 -12 51 -20 40 -4 89 -15 108 -24 35 -16 34 -16 -65 -12
-117 5 -198 -4 -175 -19 8 -5 96 -10 195 -10 l180 0 -28 84 c-59 173 -70 262
-70 531 0 166 5 290 16 383 10 77 17 143 17 148 0 5 14 9 30 9 l31 0 -6 -157
c-8 -194 -9 -203 -38 -204 l-22 -2 22 -4 c26 -5 30 -21 37 -178 6 -131 37
-306 72 -413 32 -97 100 -235 128 -261 22 -21 379 -144 595 -205 68 -20 126
-38 129 -41 3 -3 -24 -5 -59 -6 -57 -1 -60 -2 -29 -9 23 -6 56 -4 95 4 38 9
78 11 110 6 l50 -7 -40 -3 -40 -2 50 -14 c60 -18 108 -13 221 21 228 70 486
211 703 385 97 78 315 289 352 341 l20 29 -63 0 c-136 0 -381 -52 -507 -107
-67 -29 -77 -24 -19 11 96 59 345 120 537 133 l93 6 45 56 c24 31 85 118 136
194 85 127 94 138 117 132 14 -4 61 -11 105 -17 44 -6 82 -12 84 -14 5 -5 -87
-149 -160 -250 l-67 -92 30 -6 c17 -3 48 -6 70 -6 65 0 246 -29 348 -56 103
-27 175 -57 258 -107 l54 -32 -34 -6 c-31 -6 -30 -6 12 -8 34 -1 53 -8 78 -30
17 -16 32 -31 32 -34 0 -9 -65 -18 -128 -17 -74 2 -130 -21 -255 -103 -176
-115 -318 -285 -362 -434 -6 -22 -5 -22 97 -18 92 3 100 2 78 -10 -22 -13 -23
-14 -5 -15 57 0 360 42 425 60 95 26 161 36 140 21 -26 -19 -250 -88 -371
-115 -85 -19 -334 -56 -377 -56 -1 0 0 -12 4 -27 12 -55 51 -100 111 -130 54
-26 66 -28 173 -27 86 0 138 6 205 23 240 61 561 224 866 437 147 103 280 206
649 503 274 220 275 221 324 221 27 0 47 -2 45 -4 -2 -2 -38 -31 -79 -65 -56
-46 -80 -59 -96 -55 -13 3 -31 1 -41 -5 -14 -9 -12 -9 15 -5 17 4 32 3 31 -2
0 -9 -370 -302 -603 -478 -357 -269 -746 -493 -1026 -591 -302 -104 -498 -135
-635 -100 -126 33 -181 102 -173 220 l4 65 -36 0 c-110 0 -653 -60 -760 -84
-194 -44 -294 -51 -680 -50 -313 0 -407 4 -570 22 -308 33 -609 82 -942 153
-101 22 -106 24 -80 35 l27 13 -35 0 c-19 0 -62 2 -95 4 -144 12 -743 212
-731 244 3 7 -1 13 -9 13 -8 0 -15 -4 -15 -9 0 -13 -119 40 -687 305 -66 31
-361 154 -369 154 -2 0 -10 -21 -18 -47 -20 -68 -71 -193 -107 -266 -116 -229
-272 -344 -426 -316 -103 19 -214 97 -226 157 -11 56 25 155 87 235 27 35 32
47 19 43 -90 -26 -124 -30 -258 -30 -172 0 -325 23 -490 75 -227 71 -345 158
-345 255 0 59 33 95 123 132 140 59 208 67 547 67 316 -1 457 -12 698 -55 58
-11 107 -18 107 -17 1 1 22 29 48 63 54 72 84 127 93 171 l6 33 -73 -27 c-96
-34 -233 -39 -292 -9 -71 35 -137 126 -137 188 0 17 -13 8 -67 -44 -122 -117
-241 -178 -364 -186 -103 -6 -161 18 -189 80 -28 61 -26 167 6 303 62 271 52
244 90 251 19 3 38 12 42 19 4 6 36 16 72 22 l65 10 -101 2 -100 1 -10 53 -9
52 -85 3 c-62 2 -81 -1 -70 -8 12 -9 9 -10 -14 -8 -26 3 -33 -3 -60 -47 l-31
-50 -68 3 c-37 2 -75 -2 -85 -7 -13 -8 1 -11 53 -11 94 0 100 -5 77 -61 -10
-24 -38 -111 -62 -192 -40 -138 -42 -148 -26 -160 11 -8 17 -23 14 -38 -2 -19
-10 -25 -34 -27 -27 -3 -35 -11 -59 -62 -16 -33 -42 -74 -59 -91 -37 -39 -120
-79 -161 -79 -45 1 -108 33 -141 73 l-30 36 -49 -24 c-28 -13 -85 -34 -127
-46 -99 -29 -139 -20 -193 46 l-36 45 -32 -24 c-90 -68 -238 -107 -319 -86
-55 15 -134 94 -173 174 -23 47 -30 77 -33 144 -5 84 11 192 28 192 5 0 8 8 7
18 -1 25 50 132 64 132 7 0 9 3 6 6 -15 16 78 124 106 124 16 0 17 3 7 15 -11
13 2 15 104 15 l117 0 -46 -67 c-25 -38 -49 -73 -54 -79 -5 -6 -12 -21 -16
-35 -4 -13 -18 -45 -31 -71 l-24 -48 -83 0 c-57 0 -77 -3 -67 -10 8 -5 44 -10
79 -10 56 0 62 -2 56 -17 -67 -161 -71 -343 -8 -393 40 -31 98 -26 179 15 106
53 118 67 142 167 25 102 88 268 108 284 7 6 11 13 8 16 -3 3 17 10 43 16 66
15 183 23 183 13 0 -4 -11 -34 -24 -67 -34 -83 -59 -216 -53 -277 11 -114 95
-111 247 9 55 43 58 47 85 139 23 80 31 95 49 96 17 1 18 2 4 6 -19 5 -22 12
-12 37 4 11 19 16 45 16 21 0 39 5 39 10 0 6 -16 10 -35 10 -19 0 -35 4 -35 9
0 13 27 88 56 151 l26 58 66 6 c37 4 89 9 116 12 34 5 47 3 42 -5 -5 -7 3 -11
21 -10 25 0 26 1 8 9 -15 6 -8 9 27 9 26 1 50 5 53 11 6 10 -2 10 -210 -10
-54 -5 -101 -7 -103 -5 -17 16 96 132 154 160 38 18 140 34 222 35 l43 0 -20
-26 c-12 -15 -21 -34 -21 -42 0 -13 -18 -14 -130 -9 -124 5 -130 5 -130 -14 0
-12 -7 -19 -19 -19 -11 0 -22 -4 -26 -9 -3 -6 21 -8 62 -6 163 11 321 13 361
5 23 -4 45 -3 48 1 6 10 -16 13 -56 10 -17 -2 -22 1 -15 8 6 5 33 12 60 14 40
3 35 4 -25 5 -83 2 -84 12 -1 36 109 32 210 14 240 -43 10 -18 7 -20 -26 -24
l-38 -4 41 -1 c34 -2 43 -6 48 -24 18 -67 0 -204 -53 -413 -41 -164 -53 -247
-41 -279 9 -24 14 -26 66 -26 75 0 154 42 233 125 56 58 61 67 61 108 0 42 21
162 34 197 4 10 -2 19 -16 25 -28 12 -31 53 -6 69 14 8 21 7 34 -6 15 -15 19
-11 51 53 19 38 50 85 69 105 19 20 34 40 34 44 0 13 68 69 108 89 20 10 56
22 80 26 54 9 142 -3 121 -16 -10 -6 -7 -9 12 -9 14 0 34 -7 45 -15 18 -13 16
-14 -26 -15 -37 -1 -42 -2 -26 -11 10 -6 36 -9 57 -6 22 3 39 2 39 -3 0 -11
-30 -21 -41 -14 -17 10 -97 -36 -124 -72 -60 -79 -134 -264 -161 -401 -36
-189 -2 -303 90 -303 46 0 135 47 147 77 13 36 11 53 -8 53 -26 0 -53 31 -53
61 0 39 26 62 65 57 l31 -4 34 139 c39 162 45 287 18 350 -17 37 -17 37 7 37
15 0 32 -11 46 -32 16 -22 24 -27 27 -17 27 87 90 161 150 177 54 15 86 14
189 -5z m1475 -148 c-25 -21 -46 -26 -173 -39 -79 -7 -145 -12 -147 -11 -2 2
4 17 12 33 19 37 28 39 204 41 l134 1 -30 -25z m-8089 -12 c68 -4 94 -9 83
-15 -19 -11 -201 -4 -230 8 -13 5 -17 4 -13 -4 4 -6 -1 -13 -10 -15 -10 -3 11
-6 47 -7 83 -2 160 -15 140 -23 -8 -3 -89 -8 -180 -10 -147 -3 -174 -7 -243
-30 -80 -28 -113 -32 -135 -19 -9 6 -5 12 13 20 14 7 32 12 40 12 8 0 15 4 15
10 0 10 136 54 215 68 63 12 134 14 258 5z m12871 -39 c43 -44 26 -110 -34
-129 -58 -18 -114 47 -90 105 23 56 80 67 124 24z m3779 -34 c-9 -22 -20 -40
-25 -40 -5 0 -7 -4 -3 -9 3 -6 -9 -55 -27 -110 l-33 -101 -80 0 c-55 0 -75 -3
-65 -10 8 -5 43 -10 78 -10 34 0 62 -2 62 -4 0 -19 -96 -270 -121 -316 -96
-180 -212 -226 -368 -149 l-74 37 -52 -24 c-97 -45 -188 -48 -243 -7 -15 10
-39 42 -53 70 l-26 52 -50 -34 c-27 -18 -81 -49 -119 -68 -215 -109 -353 -84
-410 75 -24 67 -20 232 8 343 l23 90 75 10 75 9 -67 10 c-82 11 -89 26 -13 26
68 0 73 18 6 22 l-49 3 30 60 c16 33 33 64 38 69 7 7 226 -11 238 -20 2 -1
-16 -36 -40 -78 -35 -62 -48 -76 -68 -77 -23 0 -23 -1 -5 -9 13 -6 15 -9 5 -9
-12 -1 -12 -3 -2 -10 11 -6 8 -20 -12 -70 -43 -107 -69 -226 -64 -304 3 -64 6
-72 37 -99 30 -27 39 -30 79 -24 25 3 77 23 116 44 71 38 71 39 68 77 -4 40 7
55 42 55 11 0 27 -6 35 -14 14 -13 20 -11 48 14 23 21 44 61 76 142 24 62 47
126 51 142 l7 29 90 -5 c49 -3 93 -8 96 -11 3 -4 -1 -17 -9 -29 -32 -49 -69
-160 -70 -211 -2 -62 15 -93 58 -107 62 -21 187 43 281 143 39 41 52 64 63
110 11 46 17 57 34 58 17 1 18 2 4 6 -22 5 -22 0 -2 78 16 64 17 65 53 67 l36
1 -33 4 c-32 4 -33 6 -27 36 16 76 23 82 103 85 63 2 72 5 62 17 -11 13 -1 15
68 15 l80 0 -15 -40z m-732 -15 c140 -25 140 -25 134 -15 -4 6 9 10 29 10 41
0 43 -6 17 -37 -17 -20 -29 -23 -103 -24 -45 0 -101 -4 -123 -8 -31 -7 -12 -9
78 -10 l119 -1 -20 -27 c-16 -22 -33 -30 -84 -39 -42 -8 -67 -9 -75 -2 -7 6
-21 7 -30 3 -10 -4 -30 -11 -46 -15 l-27 -9 6 42 c4 23 11 50 15 59 6 10 5 19
-1 23 -5 3 -10 19 -10 36 0 35 4 35 121 14z m-3359 -92 c37 -32 29 -103 -12
-103 -23 0 -35 -16 -18 -23 7 -3 -4 -6 -24 -6 -37 -1 -66 18 -31 20 10 1 5 4
-12 8 -40 8 -47 57 -13 93 38 40 72 44 110 11z m-13170 -48 c2 -3 -8 -31 -24
-64 -16 -32 -32 -77 -35 -100 -6 -43 -12 -48 -30 -30 -7 7 -43 10 -96 8 -96
-4 -107 2 -107 66 0 74 66 120 132 92 32 -13 34 -13 51 9 14 19 27 24 61 24
23 0 45 -2 48 -5z m13368 -95 c0 -5 7 -7 15 -4 19 8 19 6 -5 -41 -42 -82 -13
-207 57 -248 17 -9 62 -21 102 -25 l71 -7 -48 -83 c-72 -126 -134 -206 -196
-251 -60 -45 -86 -83 -86 -128 0 -28 -1 -29 -52 -28 -239 6 -499 133 -575 280
-9 17 -21 36 -27 44 -16 21 -35 100 -35 151 -1 76 53 204 92 220 21 8 21 9 2
10 -11 0 3 8 30 18 33 11 80 17 140 17 81 -1 95 -4 139 -30 113 -66 250 -34
323 76 24 36 53 52 53 29z m2115 -108 c50 -36 40 -39 -122 -41 -85 0 -158 -3
-163 -6 -5 -3 -11 -1 -15 5 -6 10 44 34 120 56 61 17 147 10 180 -14z m-1898
-23 c12 -20 24 -29 35 -25 22 5 23 -8 2 -28 -9 -9 -11 -16 -4 -16 19 0 2 -17
-35 -34 -29 -14 -42 -15 -70 -6 -42 14 -75 57 -75 99 0 33 5 36 43 22 19 -8
27 -6 31 5 10 26 53 16 73 -17z m-4490 -31 c-3 -24 -9 -86 -12 -138 -4 -52 -9
-104 -10 -115 -2 -11 -4 -87 -4 -169 l-1 -149 -64 5 c-159 13 -273 131 -284
292 -4 62 -1 79 24 134 16 34 34 62 41 62 6 0 14 8 18 18 3 9 28 33 55 53 44
32 58 37 112 38 34 1 64 3 66 6 3 3 19 5 35 5 29 0 30 -1 24 -42z m-11568
-120 c1 -51 4 -111 7 -133 l6 -40 -74 2 c-59 1 -66 0 -38 -7 26 -7 13 -8 -49
-5 -46 2 -87 7 -92 12 -5 5 -12 56 -15 114 l-7 106 63 6 c35 4 83 7 107 7 25
0 42 4 38 9 -5 9 12 17 41 20 8 1 12 -30 13 -91z m14691 81 c-33 -7 -32 -7 10
-5 25 1 53 6 63 11 18 7 17 5 -2 -34 l-21 -41 -98 -1 c-79 -1 -89 -3 -57 -10
22 -4 64 -8 92 -8 l53 -1 -12 -26 c-11 -23 -17 -25 -50 -21 -21 3 -38 1 -38
-4 0 -5 -38 -9 -85 -9 -47 0 -85 3 -85 6 0 3 15 32 33 65 19 36 39 59 49 59
10 0 23 6 30 14 9 9 36 13 83 13 57 0 63 -2 35 -8z m2950 -13 c-36 -12 -75
-28 -87 -34 -12 -7 -31 -12 -43 -12 -12 0 -19 -4 -15 -10 3 -5 -7 -16 -22 -24
-15 -7 -56 -35 -90 -60 -52 -38 -68 -45 -93 -40 l-30 6 43 33 c91 69 223 154
247 158 14 2 54 5 90 5 l65 1 -65 -23z m-1092 -58 l-33 -63 -95 -7 c-52 -4
-116 -10 -142 -13 l-47 -7 31 71 c18 39 37 70 43 68 5 -2 42 -1 80 3 39 4 98
8 133 9 l63 1 -33 -62z m-14198 2 c24 -8 23 -8 -7 -9 -18 -1 -33 -6 -33 -12 0
-12 66 -7 101 6 12 4 24 -11 47 -57 19 -38 53 -84 84 -114 56 -53 165 -114
205 -114 12 0 23 -5 23 -10 0 -7 36 -9 99 -7 55 1 97 -1 95 -5 -3 -5 6 -8 20
-8 13 0 27 6 29 13 4 9 8 8 16 -3 8 -10 13 -12 19 -4 7 11 127 13 138 2 11
-12 -177 -48 -299 -58 -88 -7 -140 -7 -174 0 -90 20 -183 51 -183 60 0 6 -10
10 -22 10 -13 0 -32 7 -42 15 -18 14 -14 15 47 15 42 0 67 4 67 11 0 7 -23 10
-65 7 -43 -2 -65 1 -65 8 0 6 -19 14 -41 17 -26 3 -52 16 -69 32 -18 17 -30
23 -34 16 -10 -15 -48 -14 -70 2 -25 18 -24 67 2 87 14 12 18 24 15 42 -4 20
0 27 14 31 15 4 14 5 -4 6 -13 0 -23 5 -23 10 0 19 66 25 110 11z m14505 -132
c117 -21 158 -30 241 -51 l61 -15 43 34 c47 37 45 36 78 28 23 -7 23 -7 -13
-44 l-36 -37 79 -18 c67 -15 90 -16 143 -7 35 6 90 14 122 17 69 8 184 39 236
63 24 12 49 16 75 12 l39 -5 -35 -42 c-20 -23 -57 -61 -84 -84 -39 -33 -50
-39 -52 -26 -3 15 -21 17 -141 17 -105 0 -142 -3 -157 -15 -18 -14 -17 -14 16
-15 19 -1 29 -4 22 -7 -6 -2 -10 -9 -7 -14 9 -13 99 2 112 20 9 12 14 13 24 4
8 -8 16 -9 29 -1 14 9 26 8 50 -4 l32 -15 -28 -22 c-34 -27 -141 -80 -185 -91
-119 -31 -162 -39 -226 -42 -39 -2 -70 -2 -68 1 2 4 -34 7 -78 8 -51 1 -108
10 -152 23 -38 12 -87 24 -108 27 -21 3 -50 16 -64 29 -31 28 -36 28 105 8 67
-9 153 -14 217 -11 58 2 105 1 105 -2 0 -5 190 -7 279 -3 29 2 32 4 21 17 -9
11 -24 14 -49 10 -32 -4 -32 -3 9 9 l45 14 -102 1 c-56 1 -137 8 -180 16 -77
15 -343 21 -330 8 4 -4 36 -6 72 -5 41 1 65 -2 65 -9 0 -7 23 -9 75 -4 64 6
75 5 75 -8 0 -12 -6 -14 -26 -8 -15 4 -56 2 -91 -3 -51 -8 -66 -7 -73 4 -6 10
-35 12 -140 7 -103 -6 -138 -4 -163 7 -18 8 -39 17 -47 19 -8 3 8 6 35 6 28 1
56 5 63 10 21 13 -75 21 -179 14 -68 -5 -90 -3 -85 5 5 9 -10 12 -56 11 -45
-1 -56 -3 -38 -9 l25 -7 -30 -7 c-16 -5 -39 -10 -50 -13 -84 -20 -199 -64
-307 -119 -71 -35 -130 -64 -133 -64 -2 0 19 21 47 48 28 26 68 71 90 100 36
49 41 52 86 54 l47 1 -43 4 c-24 2 -42 8 -40 12 2 4 25 47 53 95 l50 89 74 -7
c41 -3 98 -6 128 -6 39 0 52 -3 47 -12 -5 -8 -2 -9 12 -4 10 4 41 12 68 17 27
5 52 12 55 14 8 8 131 -5 246 -27z m5975 -43 c12 -13 27 -22 31 -19 13 8 11
-34 -3 -59 -6 -12 -18 -27 -27 -34 -19 -15 -45 -17 -36 -3 3 6 -2 10 -11 10
-24 0 -64 39 -64 62 0 10 11 30 25 43 31 32 55 32 85 0z m-22804 -130 c-3 -8
-2 -15 2 -15 5 0 16 -26 26 -57 84 -269 317 -459 649 -527 264 -55 652 -34
1197 64 304 54 288 52 270 40 -27 -18 -255 -88 -376 -115 -570 -128 -1225
-100 -1546 67 -159 82 -291 202 -372 337 -31 51 -62 126 -38 93 10 -15 63 -12
63 3 -1 6 -18 11 -38 13 -70 6 -60 22 13 23 38 0 78 5 89 10 14 6 -10 8 -72 5
-92 -5 -103 -1 -103 35 0 15 57 10 74 -7 9 -8 21 -12 27 -8 8 4 7 9 -2 15 -10
6 -5 9 16 10 17 0 24 3 18 6 -31 12 -8 23 48 23 50 0 60 -3 55 -15z m20337
-148 c-27 -46 -79 -72 -127 -63 -36 7 -96 53 -96 73 0 4 30 9 68 10 37 2 90 9
117 16 28 8 52 10 53 5 2 -4 -5 -23 -15 -41z m-15560 -179 c12 -6 36 -11 55
-10 19 1 35 -4 38 -12 3 -8 25 -17 50 -21 56 -8 57 -25 5 -76 -33 -33 -45 -39
-81 -39 -36 0 -48 6 -81 39 -39 38 -49 74 -33 115 7 19 18 20 47 4z m-4902
-147 l79 -79 -30 -30 c-16 -17 -43 -33 -59 -37 -66 -14 -141 51 -141 124 0 35
41 101 62 101 6 0 46 -36 89 -79z m7549 44 c17 -9 33 -28 40 -50 10 -30 9 -40
-7 -68 -11 -17 -31 -36 -46 -41 -33 -12 -84 4 -79 25 2 8 0 11 -4 7 -13 -14
-34 14 -34 46 0 37 23 74 54 86 31 13 44 12 76 -5z m8229 -41 c84 -71 -17
-201 -107 -138 -70 49 -32 162 55 164 12 0 35 -12 52 -26z m-4349 -14 c89 -33
88 -33 55 -40 -16 -3 -38 -2 -49 3 -17 8 -39 7 -96 -7 -56 -14 -143 -19 -136
-8 4 7 -11 9 -50 5 -42 -5 -55 -3 -50 5 5 8 -3 12 -23 12 -17 0 -31 -4 -31 -9
0 -13 -60 -22 -78 -11 -14 8 -12 9 11 10 40 0 29 23 -14 31 -48 9 72 14 222
10 72 -2 124 1 135 8 27 15 42 14 104 -9z m3815 -10 c3 -5 39 -10 80 -10 101
0 105 -2 105 -61 0 -76 -33 -150 -91 -204 -46 -43 -54 -47 -87 -42 -42 7 -116
-7 -92 -16 8 -4 33 -8 55 -9 35 -3 38 -4 20 -14 -13 -8 -41 -9 -84 -4 -46 6
-72 4 -97 -6 -39 -16 -128 -19 -119 -4 3 6 18 10 33 10 21 0 24 2 12 10 -12 7
-7 12 21 24 20 8 46 12 58 9 12 -3 32 -1 44 5 12 6 33 13 47 15 15 2 3 6 -32
11 l-57 8 64 62 c72 68 84 99 66 164 -6 24 -9 48 -6 53 8 12 52 12 60 -1z
m-251 -425 c31 -4 58 -11 61 -15 2 -4 -32 -21 -76 -39 -68 -26 -93 -31 -162
-30 -45 1 -93 4 -106 8 -22 6 -17 10 40 34 35 15 74 27 85 27 12 0 35 7 50 15
16 8 34 13 40 11 6 -2 36 -7 68 -11z"/>
<path d="M27034 19075 c-74 -31 -292 -301 -424 -525 -70 -118 -220 -445 -220
-478 0 -4 19 22 42 58 24 36 133 157 243 270 173 177 234 244 292 320 10 14 7
15 -22 12 -27 -3 -36 1 -51 22 -14 22 -15 32 -6 52 7 13 19 27 27 30 26 10 64
-5 78 -32 l13 -26 27 59 c14 32 30 78 36 103 12 53 14 137 3 144 -4 2 -21 -2
-38 -9z"/>
<path d="M26193 17654 c2 -13 -7 -20 -28 -24 -68 -13 1 -16 180 -9 105 4 207
4 228 -1 20 -4 39 -4 42 0 7 12 -29 22 -49 14 -9 -3 -16 -1 -16 4 0 6 15 13
33 15 17 2 -40 5 -128 5 -88 1 -183 5 -212 8 -46 6 -51 5 -50 -12z"/>
<path d="M27900 17700 c-39 -5 -41 -7 -16 -11 l28 -4 -47 -35 c-104 -77 -213
-283 -232 -437 l-6 -53 35 0 c53 0 86 -47 67 -97 -12 -33 -37 -52 -67 -53 -20
0 -22 -4 -16 -22 28 -92 87 -158 154 -173 80 -18 214 116 280 280 l22 55 -26
21 c-14 11 -26 31 -26 43 0 32 33 60 64 54 19 -4 27 0 32 15 6 18 13 19 70 14
48 -3 66 -1 76 10 10 12 1 14 -63 12 -49 -1 -73 2 -72 9 2 6 7 50 12 97 13
109 -1 195 -38 239 -12 14 -13 20 -3 23 57 21 -112 30 -228 13z"/>
<path d="M13800 16553 c-76 -14 -175 -60 -205 -93 -16 -18 -14 -22 30 -69 139
-149 542 -256 870 -231 155 12 157 13 285 157 l113 128 -32 3 c-17 2 -29 8
-25 13 3 6 -5 7 -22 3 -20 -5 -25 -4 -19 6 6 9 -24 11 -141 5 -181 -7 -254
-18 -339 -49 -36 -13 -65 -22 -65 -21 0 9 167 99 203 110 l41 12 -44 7 c-265
38 -516 46 -650 19z"/>
<path d="M20311 16411 c-37 -44 -39 -49 -21 -54 27 -7 27 -53 0 -67 -15 -8
-24 -6 -39 9 -18 18 -20 17 -122 -86 -181 -182 -365 -329 -549 -437 -105 -61
-298 -156 -319 -156 -6 0 -11 -4 -11 -9 0 -11 188 -32 367 -40 238 -10 476 6
665 45 15 3 30 14 33 24 16 51 118 185 209 275 139 138 283 232 436 283 l54
19 -44 33 c-103 75 -371 173 -535 195 -27 4 -57 9 -66 11 -11 3 -31 -13 -58
-45z"/>
<path d="M14823 16283 c-177 -175 -242 -271 -242 -363 -1 -57 18 -83 68 -93
59 -12 121 13 179 70 l44 45 -21 19 c-26 24 -29 90 -5 110 9 7 34 15 56 18 40
6 42 7 63 71 12 36 32 105 45 153 20 75 21 90 9 98 -35 22 -58 7 -196 -128z"/>
<path d="M17687 15687 c-12 -5 -91 -7 -174 -5 -84 2 -153 3 -153 2 0 -1 51
-15 114 -30 116 -28 147 -52 52 -40 -88 11 -286 14 -246 4 19 -4 121 -11 225
-13 157 -5 216 -11 336 -35 154 -31 478 -80 529 -80 17 0 30 -5 30 -11 0 -8
114 -10 404 -8 274 3 402 1 396 -6 -6 -7 5 -9 33 -6 37 4 39 5 17 12 -33 9
-31 10 80 23 l95 12 -180 9 c-207 11 -285 11 -481 0 -248 -14 -501 43 -677
151 l-57 35 -161 -3 c-88 -2 -170 -7 -182 -11z"/>
<path d="M21601 17090 c-45 -11 -80 -38 -102 -80 -48 -90 6 -201 106 -217 l35
-6 0 74 0 74 50 -52 50 -51 20 25 c84 106 -23 264 -159 233z"/>
<path d="M4766 17387 c-134 -76 -79 -277 75 -277 88 0 154 73 146 161 -10 113
-123 172 -221 116z"/>
<path d="M7289 17177 c-67 -44 -87 -128 -47 -198 l22 -39 53 52 53 52 0 -73 0
-73 33 6 c58 11 110 64 120 121 l6 30 -75 -3 -74 -4 0 76 0 76 -29 0 c-15 0
-43 -10 -62 -23z"/>
<path d="M6712 17141 c-100 -63 -95 -212 8 -263 46 -24 92 -23 141 2 54 28 79
72 79 138 0 47 -4 57 -39 94 -35 38 -43 42 -97 45 -47 3 -66 0 -92 -16z"/>
<path d="M18600 17141 c-85 -7 -109 -18 -145 -65 -36 -48 -36 -132 1 -176 39
-45 74 -60 148 -60 108 0 160 16 200 61 32 34 36 45 36 92 0 86 -46 139 -130
150 -19 2 -69 1 -110 -2z"/>
<path d="M7744 17021 c-72 -33 -110 -104 -102 -193 9 -89 87 -158 181 -158
112 0 187 75 187 186 0 139 -137 224 -266 165z m161 -91 c25 -25 30 -38 30
-76 0 -40 -5 -50 -39 -81 -34 -31 -43 -35 -79 -30 -91 12 -136 119 -77 182 14
15 34 31 45 36 35 15 87 2 120 -31z"/>
<path d="M12826 16489 c-95 -22 -151 -105 -144 -214 6 -105 69 -171 171 -182
66 -7 117 9 164 50 45 40 63 82 63 149 -1 101 -57 176 -150 197 -52 12 -52 12
-104 0z m95 -115 c17 -8 37 -30 45 -50 23 -56 -7 -105 -77 -127 -27 -9 -77 23
-94 60 -21 44 -6 86 39 114 38 23 48 23 87 3z"/>
<path d="M12890 15578 c-54 -37 -74 -72 -74 -128 0 -35 6 -59 20 -78 28 -37
82 -72 110 -72 23 0 24 3 24 72 l0 72 49 -48 c54 -53 65 -53 87 0 41 99 -29
204 -136 204 -32 0 -57 -7 -80 -22z"/>
</g>
</svg>
