<?xml version="1.0" standalone="no"?>
<!DOCTYPE svg PUBLIC "-//W3C//DTD SVG 20010904//EN"
 "http://www.w3.org/TR/2001/REC-SVG-20010904/DTD/svg10.dtd">
<svg version="1.0" xmlns="http://www.w3.org/2000/svg"
 width="600.000000pt" height="600.000000pt" viewBox="0 0 600.000000 600.000000"
 preserveAspectRatio="xMidYMid meet">
<metadata>
Created by potrace 1.16, written by Peter Selinger 2001-2019
</metadata>
<g transform="translate(0.000000,600.000000) scale(0.017321,-0.017321)"
fill="#000000" stroke="none">
<path d="M0 17320 l0 -17320 17320 0 17320 0 0 17320 0 17320 -17320 0 -17320
0 0 -17320z m12164 4332 c479 -64 855 -178 1233 -377 786 -414 1428 -1101
1831 -1960 278 -593 410 -1152 438 -1854 5 -130 4 -172 -5 -167 -6 4 -11 2
-11 -3 0 -6 5 -11 10 -11 6 0 2 -8 -7 -18 -17 -17 -18 -16 -24 13 l-6 30 -2
-27 c0 -16 -6 -28 -12 -28 -5 0 -7 5 -4 10 4 6 -12 10 -39 10 -35 0 -46 4 -46
16 0 13 -13 15 -90 12 -73 -2 -90 0 -90 12 0 11 -3 11 -12 2 -30 -30 -35 -12
-42 146 -26 623 -164 1178 -436 1747 -365 767 -925 1357 -1635 1726 -408 212
-784 319 -1225 349 -87 6 -1041 10 -2402 10 l-2258 0 0 -1053 c0 -1054 -11
-2935 -17 -2907 -3 13 -29 15 -175 12 -132 -2 -173 0 -179 10 -5 7 -9 982 -9
2166 l0 2153 2563 -4 c1884 -3 2585 -7 2651 -15z m7645 -1904 c-1 -1058 -4
-2042 -8 -2187 -6 -246 -7 -264 -24 -267 -28 -4 -34 -14 -9 -14 16 0 22 -6 21
-22 -1 -20 -2 -20 -6 -4 -4 15 -7 16 -14 5 -6 -10 -9 -10 -9 -1 0 18 -39 15
-58 -5 -16 -16 -17 -16 -20 0 -5 23 -116 24 -138 2 -9 -9 -34 -15 -59 -15 -37
0 -44 -3 -48 -22 -2 -13 -5 984 -6 2215 l-1 2237 190 0 190 0 -1 -1922z m761
1125 c0 -439 -3 -1422 -7 -2185 l-6 -1388 -119 0 c-94 0 -118 -3 -118 -14 0
-15 -92 -28 -98 -14 -6 14 -20 9 -25 -9 -3 -10 -5 978 -6 2195 l-1 2212 190 0
190 0 0 -797z m755 640 c0 -84 -1 -1057 -3 -2162 l-2 -2009 -185 -1 -185 -2 0
2166 0 2165 188 -2 187 -3 0 -152z m4795 -33 l0 -190 -2020 0 -2020 0 0 -190
0 -190 2018 -2 2017 -3 3 -187 2 -188 -2020 0 -2020 0 0 -190 0 -190 2020 0
2020 0 0 -190 0 -190 -2020 0 -2020 0 0 -760 0 -760 1035 0 1035 0 0 -185 0
-185 -1035 0 -1035 0 0 -195 0 -195 1035 0 1035 0 0 -75 c0 -55 -3 -74 -12
-72 -7 1 -16 7 -20 12 -4 6 -8 1 -8 -10 0 -11 -4 -15 -8 -10 -4 7 -411 10
-1185 10 -1170 0 -1177 0 -1178 -20 0 -15 -2 -16 -6 -5 -3 8 -9 17 -13 20 -8
6 -21 4316 -12 4324 3 3 997 6 2209 6 l2203 0 0 -190z m-14310 -352 c0 -6 9
-8 20 -5 11 3 23 1 26 -4 3 -5 17 -6 31 -3 15 4 24 3 20 -2 -3 -5 17 -10 44
-11 27 0 47 3 44 7 -3 5 0 12 6 16 7 4 9 3 6 -3 -9 -14 11 -30 43 -35 l25 -5
-25 -12 -25 -12 25 7 c71 17 184 -11 121 -31 -10 -3 -57 -1 -102 5 -56 7 -787
10 -2181 10 -1858 0 -2098 2 -2098 15 0 11 12 15 45 15 36 0 43 3 38 15 -4 13
2 15 31 13 21 -1 40 3 44 9 4 6 18 13 32 16 14 2 881 5 1928 5 1347 1 1902 -2
1902 -10z m13620 1 c52 -4 131 -14 175 -22 68 -12 75 -15 45 -19 l-35 -5 41
-1 c23 -1 47 -9 54 -17 11 -13 -192 -15 -1734 -15 l-1746 0 0 45 0 45 1553 -1
c853 -1 1595 -5 1647 -10z m-3878 -49 c3 14 5 -1678 5 -3760 1 -2082 -3 -3771
-7 -3755 -4 17 -8 22 -9 13 -1 -22 -31 -12 -32 11 -1 9 -4 6 -9 -9 l-8 -25 -2
25 c-1 23 -2 23 -10 5 -5 -11 -9 1634 -9 3740 0 2431 3 3755 9 3745 8 -12 10
-12 10 5 0 17 2 17 10 5 9 -13 10 -13 10 0 0 13 1 13 10 0 8 -12 10 -12 11 5
1 16 2 16 8 -5 l8 -25 5 25z m-13993 -3742 c-1 -1965 -4 -3586 -8 -3603 -7
-28 -8 -27 -15 19 -5 35 -10 45 -17 35 -6 -10 -9 -4 -10 21 0 27 -2 30 -8 16
-7 -19 -8 -19 -17 0 -13 27 -17 6977 -4 6969 6 -4 10 6 11 22 l1 28 8 -25 8
-25 1 28 c1 18 5 26 12 21 8 -5 10 1 7 20 -5 22 -3 24 10 14 13 -11 14 -10 8
10 -5 13 -3 22 3 22 8 0 11 -1046 10 -3572z m4576 3549 c442 -66 780 -190
1130 -415 520 -334 920 -789 1215 -1384 227 -456 350 -904 395 -1432 8 -94 15
-204 15 -243 l0 -73 -171 0 c-148 0 -170 2 -165 15 3 8 1 15 -5 15 -5 0 -13
-10 -18 -22 -6 -18 -9 -19 -14 -5 -4 10 -1 17 6 17 8 0 9 3 1 8 -6 4 -16 80
-23 177 -26 366 -81 640 -193 964 -342 991 -1079 1728 -1952 1951 -264 67
-135 64 -2302 67 l-1961 4 -6 -338 c-4 -186 -7 -904 -7 -1596 l0 -1258 -165 3
-165 3 -1 -30 c-2 -30 -2 -30 -9 5 -4 19 -8 29 -9 22 0 -7 -5 -10 -11 -7 -7 4
-10 612 -10 1791 l0 1785 2158 -4 c1938 -3 2168 -5 2267 -20z m8660 -6565
c-11 -11 -14 9 -26 153 -8 102 -14 590 -18 1510 -6 1303 -7 1359 -24 1335 -17
-24 -17 18 -17 998 1 892 3 1022 15 1022 8 0 16 3 16 8 1 4 5 158 10 342 4
184 11 362 14 395 30 342 30 373 33 -2719 1 -1672 0 -3042 -3 -3044z m-8750
6048 c667 -78 1280 -469 1716 -1095 258 -370 457 -847 538 -1290 51 -285 65
-472 58 -779 -13 -538 -120 -985 -342 -1441 -164 -334 -342 -585 -594 -835
-427 -425 -908 -657 -1445 -700 -81 -6 -802 -10 -1937 -10 l-1809 0 0 3080 0
3080 1863 0 c1229 0 1893 -4 1952 -10z m13510 0 c-27 -4 -63 -13 -80 -20 -16
-7 -79 -14 -140 -16 -60 -2 -119 -9 -130 -14 -28 -13 -423 -19 -1792 -26
l-1183 -6 0 46 0 46 1688 -1 c928 -1 1665 -5 1637 -9z m-2624 -747 c-26 -3
-31 -7 -20 -14 10 -6 10 -9 2 -9 -7 0 -13 -7 -13 -15 0 -8 -4 -15 -10 -15 -5
0 -10 -11 -10 -25 0 -14 -4 -25 -8 -25 -11 0 -52 -73 -52 -93 0 -8 -9 -26 -20
-40 -11 -14 -20 -32 -20 -40 0 -9 -7 -23 -16 -32 -9 -8 -14 -22 -11 -29 3 -8
-1 -40 -8 -73 -25 -101 -13 -406 16 -438 5 -5 9 -20 9 -33 0 -21 10 -45 53
-127 9 -16 31 -60 49 -97 18 -36 45 -74 60 -85 62 -41 48 -43 -337 -43 l-365
0 0 620 0 620 368 -2 c202 0 352 -3 333 -5z m924 -1907 c8 -7 11 -16 8 -20 -4
-3 4 -6 16 -6 12 0 20 -4 17 -9 -3 -5 5 -12 19 -15 89 -22 -27 -26 -830 -26
l-855 0 0 45 0 45 806 0 c672 0 808 -2 819 -14z m55 -756 c-8 -5 -23 -10 -33
-10 -11 0 -21 -9 -24 -20 -3 -11 -9 -17 -14 -14 -5 2 -14 -4 -21 -16 -13 -20
-19 -20 -800 -20 l-788 0 0 45 0 45 848 0 c550 0 842 -4 832 -10z m-1002 -775
c-16 -13 -28 -28 -28 -34 0 -8 -20 -52 -42 -91 -4 -8 -13 -26 -19 -40 -6 -14
-19 -42 -30 -62 -10 -20 -19 -48 -19 -60 0 -13 -4 -28 -9 -33 -16 -17 -34
-216 -28 -312 7 -103 50 -288 72 -310 8 -8 15 -21 15 -29 0 -8 4 -14 8 -14 5
0 15 -18 22 -40 7 -22 17 -40 22 -40 4 0 8 -11 8 -25 0 -14 5 -25 10 -25 6 0
10 -7 10 -15 0 -8 8 -15 18 -16 11 -1 9 -4 -8 -9 -24 -8 -23 -8 8 -9 19 -1 31
-5 27 -11 -3 -5 0 -11 7 -11 7 -1 0 -5 -17 -9 -16 -4 -182 -8 -367 -9 l-338
-1 0 615 0 615 353 0 352 -1 -27 -24z m2540 -1881 c24 -7 30 -24 8 -24 -8 0
-17 -3 -19 -7 -3 -5 35 -8 83 -8 48 0 86 -3 83 -7 -2 -5 6 -9 19 -9 22 -2 22
-2 -2 -7 -20 -5 -17 -7 20 -13 25 -3 -732 -7 -1682 -7 l-1728 -2 0 45 0 45
1598 0 c878 0 1607 -3 1620 -6z m-13498 -750 c-107 -22 -369 -52 -550 -61 -41
-2 -104 -6 -140 -8 -36 -3 -699 -7 -1475 -10 -1419 -6 -1491 -5 -1705 30 -51
8 -53 10 -25 16 23 6 18 8 -25 7 -30 -1 -75 0 -100 2 l-45 3 50 7 c61 10 3709
11 3780 2 28 -4 74 -2 105 5 30 6 75 11 100 11 25 0 38 -2 30 -4z m13541 -13
l34 -7 -45 -7 c-25 -3 -75 -9 -112 -13 -38 -3 -89 -9 -115 -11 -27 -3 -235 -8
-463 -11 -228 -2 -512 -9 -630 -13 -387 -15 -1430 -20 -1640 -7 -107 6 -215
12 -240 12 -44 1 -45 2 -48 34 l-2 33 1614 -2 c887 0 1628 -4 1647 -8z m-2994
-1496 c91 -38 142 -108 143 -194 0 -51 -18 -159 -31 -181 -4 -8 -22 -39 -39
-69 l-31 -53 22 -24 c28 -30 29 -80 2 -126 -27 -47 -65 -58 -102 -31 l-28 21
-163 -203 -163 -204 -93 1 c-71 0 -94 4 -94 14 0 7 8 18 18 23 9 6 12 11 6 11
-13 0 71 308 147 535 90 271 186 432 284 476 49 23 75 23 122 4z m-3322 -29
c80 -21 127 -50 191 -118 67 -72 115 -161 146 -275 19 -67 22 -104 23 -261 0
-158 2 -181 15 -176 38 15 77 14 110 -3 l35 -19 65 46 c36 24 182 130 325 234
446 323 614 407 910 452 132 21 188 14 336 -42 151 -56 205 -58 291 -6 l53 32
-55 -51 c-79 -74 -163 -126 -223 -139 -75 -15 -141 1 -279 66 -64 31 -135 58
-156 61 l-40 5 -41 -70 c-60 -102 -103 -210 -165 -405 -30 -95 -57 -182 -61
-195 l-7 -23 39 21 c56 30 100 25 252 -26 156 -53 200 -54 296 -10 33 15 55
20 55 13 0 -22 -117 -124 -175 -152 -43 -21 -79 -31 -126 -33 -60 -4 -76 0
-151 33 -108 48 -174 68 -201 61 -17 -4 -26 -20 -40 -68 -10 -34 -34 -104 -54
-155 -33 -86 -38 -93 -67 -98 -44 -8 -141 0 -141 11 0 5 9 33 19 62 l20 52 70
2 71 2 -67 3 c-38 2 -68 5 -68 6 0 1 42 131 94 287 103 313 168 471 233 569
24 35 41 66 38 69 -3 3 -36 -4 -73 -16 -101 -33 -309 -162 -592 -368 -140
-103 -278 -202 -306 -221 l-51 -34 14 -41 c7 -22 11 -49 8 -59 -4 -12 -2 -19
6 -19 26 0 59 -43 59 -77 0 -27 -4 -33 -22 -34 -21 0 -21 -1 -4 -8 18 -7 18
-8 -5 -24 -29 -21 -69 -22 -95 -3 -21 16 -19 16 51 29 11 2 -26 7 -83 11 -89
7 -107 12 -133 33 -16 14 -31 24 -33 22 -1 -2 -8 -31 -15 -64 -8 -33 -24 -87
-38 -121 -21 -53 -27 -61 -51 -62 -15 0 -48 -3 -74 -7 -33 -5 -48 -4 -48 4 0
6 4 11 8 11 4 0 8 8 8 18 1 9 13 47 28 84 l26 68 -50 -36 c-28 -20 -83 -48
-123 -62 -62 -22 -88 -26 -187 -26 -116 0 -214 18 -270 50 -22 13 -8 14 145
13 252 -3 323 0 305 11 -13 8 -12 10 3 10 25 0 137 54 169 82 24 20 31 41 54
153 23 115 25 146 21 275 -5 160 -24 243 -79 360 -133 279 -442 292 -693 29
-85 -89 -141 -183 -172 -293 -55 -189 -12 -348 128 -481 39 -37 63 -66 56 -69
-7 -2 0 -5 16 -5 15 -1 27 -5 27 -11 0 -5 10 -10 23 -10 12 -1 36 -7 52 -14
30 -13 29 -13 -36 -21 -52 -5 -73 -3 -105 11 l-39 18 40 7 40 7 -45 -2 c-39
-3 -52 2 -96 35 -64 47 -136 141 -165 217 -33 86 -37 218 -9 302 64 192 301
440 505 529 110 49 235 63 330 37z m4094 -32 c43 -54 20 -167 -58 -286 -26
-41 -104 -140 -173 -220 -140 -162 -203 -247 -242 -325 -14 -29 -26 -54 -26
-55 0 -7 226 -2 237 5 7 5 22 10 33 12 34 6 25 -42 -14 -81 -30 -30 -41 -34
-87 -35 -49 -2 -51 -2 -19 -9 l35 -6 -29 -9 c-16 -4 -64 -5 -107 -2 l-79 6
-15 -29 c-9 -17 -21 -30 -28 -30 -9 0 -9 -2 0 -8 10 -6 10 -17 3 -43 -6 -18
-11 -71 -11 -116 -1 -125 31 -173 114 -173 52 0 129 53 215 147 74 80 82 93
98 156 9 37 22 74 30 81 7 8 11 16 8 19 -3 3 1 14 8 26 9 15 24 21 53 22 26 1
31 3 15 6 -51 8 -53 11 -29 44 27 38 82 63 118 53 14 -4 32 -8 38 -10 23 -4
78 -43 112 -78 19 -20 38 -36 41 -36 3 0 13 13 22 28 14 24 23 28 50 26 18 -2
25 -1 16 2 -17 5 -17 6 0 24 27 29 93 51 151 51 42 0 71 -8 129 -36 53 -27 71
-40 61 -46 -10 -6 -7 -9 11 -9 26 0 110 -40 110 -52 0 -3 -8 -9 -17 -11 -36
-9 56 -7 108 3 39 8 63 20 89 44 49 47 84 62 162 70 l66 6 -11 -24 c-13 -27
-52 -37 -118 -31 -25 3 -46 0 -54 -8 -10 -11 7 -13 99 -9 114 5 129 7 108 21
-16 10 52 31 101 31 44 0 90 -34 67 -50 -13 -8 -13 -10 2 -10 39 0 36 -65 -13
-269 -37 -154 -36 -165 14 -169 69 -6 163 67 210 164 11 24 25 44 29 44 18 0
6 -49 -22 -93 -91 -143 -263 -232 -366 -189 -68 29 -71 116 -13 334 8 30 16
39 47 49 l37 13 -35 6 c-29 4 -35 10 -41 37 -5 25 -3 33 10 36 19 5 -61 -2
-104 -8 -20 -4 -36 -15 -47 -35 -15 -26 -23 -30 -65 -32 l-48 -1 44 -4 c50 -5
49 8 3 -146 -16 -53 -26 -100 -21 -103 16 -10 10 -44 -9 -44 -10 0 -27 -18
-41 -45 -33 -63 -74 -90 -134 -90 -42 0 -52 4 -78 33 -36 41 -36 49 1 57 41 9
56 33 92 153 26 85 35 102 52 103 17 1 18 2 4 6 -22 5 -22 14 -3 60 8 19 15
36 15 37 0 1 -21 1 -47 1 -27 0 -56 4 -66 9 -17 8 -19 5 -16 -25 3 -55 0 -69
-18 -70 -16 -1 -16 -2 1 -6 14 -4 17 -11 12 -36 -20 -102 -110 -218 -204 -264
-76 -37 -208 -44 -264 -15 -30 16 -38 17 -38 6 0 -16 -36 -19 -45 -4 -4 6 -2
17 4 24 8 10 4 28 -15 71 -35 77 -42 169 -19 255 26 98 26 101 -19 138 -31 26
-46 32 -65 27 -14 -3 -37 -6 -51 -7 -17 0 -20 -2 -7 -5 29 -8 13 -28 -22 -27
-17 1 -28 -2 -25 -7 3 -5 13 -9 24 -9 16 0 15 -7 -14 -90 l-31 -90 -45 -2 -45
-1 43 -4 c42 -4 44 -5 37 -31 -4 -15 -20 -61 -36 -104 -61 -158 -147 -210
-255 -155 l-49 25 30 12 c52 20 111 88 130 150 6 18 -17 1 -85 -63 -151 -142
-282 -192 -359 -138 -77 55 -100 224 -57 429 l13 63 -35 30 c-27 24 -41 29
-61 24 -14 -3 -37 -6 -51 -7 -17 0 -20 -2 -7 -5 29 -8 13 -28 -21 -28 -38 0
-43 -12 -7 -17 23 -3 24 -5 12 -28 -7 -14 -21 -53 -31 -87 l-19 -63 -46 -2
-46 -1 43 -4 c23 -2 42 -8 42 -13 0 -5 -14 -47 -31 -94 -66 -183 -153 -242
-268 -182 l-45 23 -44 -19 c-59 -26 -118 -20 -149 17 -13 14 -23 33 -23 41 0
19 1 19 -65 -21 -155 -93 -266 -82 -296 29 -13 46 -7 172 11 230 11 37 13 38
48 33 20 -3 46 -1 57 3 15 6 6 9 -32 9 -29 1 -53 4 -53 7 0 3 10 28 21 55 21
49 22 49 69 49 26 0 61 -3 77 -6 l30 -6 -26 -49 c-18 -33 -32 -49 -46 -49 -15
0 -17 -3 -7 -9 11 -7 9 -24 -12 -90 -34 -108 -34 -164 -1 -197 28 -28 39 -27
113 8 36 17 42 24 42 50 0 29 2 30 34 25 45 -7 59 9 95 109 31 86 42 93 116
80 l32 -6 -22 -48 c-51 -107 -37 -169 36 -159 42 5 121 57 150 97 10 14 32 74
48 135 16 60 34 111 40 113 6 2 9 8 6 12 -3 5 0 18 7 30 10 15 24 20 58 21 32
2 37 3 15 6 -56 7 -58 10 -34 44 27 38 82 63 118 54 14 -4 27 -6 29 -6 8 3 68
-35 100 -63 31 -27 42 -31 67 -25 24 5 25 7 8 8 -30 1 -29 12 8 123 119 356
321 684 490 797 75 50 117 54 148 15z m-9261 -50 c28 -14 73 -49 99 -78 93
-101 133 -221 133 -399 0 -99 2 -110 22 -126 26 -21 19 -48 -14 -53 -17 -2
-24 -12 -31 -43 -16 -73 -59 -220 -74 -247 -7 -16 -21 -29 -31 -29 -15 -1 -16
-2 0 -6 14 -3 15 -9 6 -34 -5 -16 -17 -29 -26 -29 -13 0 -14 -2 -4 -9 10 -6 3
-30 -31 -109 -127 -286 -255 -410 -455 -443 -92 -15 -176 -2 -269 42 -56 27
-64 33 -48 40 18 7 17 8 -6 8 -14 1 -39 15 -59 34 l-33 32 26 3 c28 3 46 -4
121 -55 105 -70 202 -63 315 21 27 20 47 26 90 27 l56 0 -42 17 -42 17 30 40
c40 53 111 184 145 268 l28 67 58 0 c66 0 71 14 7 23 -49 6 -53 9 -44 38 4 12
10 17 14 12 10 -16 43 -24 65 -16 19 6 18 8 -9 14 -21 5 -10 7 39 8 93 1 75
24 -21 28 -38 1 -69 3 -69 3 -1 0 9 37 22 82 97 335 94 636 -9 746 -73 78
-221 94 -301 31 -21 -17 -86 -116 -86 -132 0 -3 10 -7 22 -9 12 -2 29 -15 37
-29 13 -24 13 -29 -2 -53 -20 -30 -61 -35 -87 -11 -14 13 -19 6 -53 -73 -20
-48 -72 -193 -116 -323 -77 -231 -78 -236 -57 -245 13 -6 21 -18 21 -34 0 -24
-2 -25 -62 -25 -67 1 -81 -8 -35 -20 l27 -8 -25 -7 c-16 -5 -19 -8 -7 -9 21
-1 21 -3 3 -46 -8 -19 -21 -35 -28 -35 -10 0 -10 -2 -1 -8 8 -5 2 -29 -23 -85
-19 -43 -34 -83 -34 -89 0 -6 15 -30 34 -53 l35 -42 -35 -1 c-28 -1 -37 3 -46
23 -14 31 -21 31 -38 0 -8 -16 -22 -25 -37 -25 -24 0 -32 -15 -11 -22 22 -8
-109 -105 -183 -135 -113 -47 -119 -48 -119 -23 0 16 13 27 53 45 58 25 105
72 138 137 34 67 70 170 65 185 -11 27 -254 163 -292 163 -10 0 -55 -82 -60
-107 -5 -25 -76 -133 -119 -181 -38 -42 -51 -50 -91 -56 -26 -3 -49 -4 -52 -1
-3 2 16 27 41 54 25 27 62 81 81 120 20 39 42 71 49 72 9 0 9 2 0 5 -11 5 -9
19 21 111 6 18 2 22 -25 28 -56 12 -6 29 67 22 44 -4 64 -3 67 6 2 7 8 8 13 4
5 -5 1 -15 -10 -23 -18 -13 -17 -14 20 -14 48 0 185 -63 262 -121 l52 -40 11
28 c6 15 17 47 24 71 l13 42 -29 0 c-37 0 -38 20 -1 21 15 1 31 1 35 0 5 -1 6
3 2 9 -3 5 -25 10 -48 10 -51 0 -93 20 -91 43 1 9 -2 17 -7 17 -15 0 9 38 31
50 13 7 26 7 38 1 31 -16 57 -2 78 42 12 26 31 48 50 57 25 12 35 28 59 95 50
144 106 278 153 370 l47 91 -87 -38 c-258 -115 -406 -69 -323 99 31 61 96 138
135 158 39 20 106 30 114 16 4 -6 1 -11 -8 -11 -59 0 -174 -210 -144 -264 24
-43 116 -10 370 136 225 130 320 168 424 168 55 0 81 -5 122 -26z m-2078 -173
c351 -72 634 -244 730 -446 36 -76 60 -189 60 -287 0 -59 -2 -69 -16 -64 -10
4 -13 2 -8 -6 5 -8 -36 -9 -157 -5 -160 5 -227 17 -214 37 4 6 -12 9 -42 9
l-48 -2 40 -6 c64 -10 28 -19 -77 -20 -66 0 -115 -7 -152 -19 -29 -10 -62 -15
-72 -12 -46 17 142 80 237 80 66 0 139 -11 134 -21 -8 -11 4 -16 60 -23 36 -4
44 -3 28 4 -61 25 4 22 107 -5 30 -8 58 -15 61 -15 13 0 19 140 9 206 -36 232
-226 409 -555 517 -134 44 -213 58 -380 63 -121 5 -184 2 -257 -10 -494 -81
-860 -416 -970 -886 l-20 -88 -77 -4 c-42 -2 -77 -3 -79 -2 -1 0 3 30 10 65
l13 64 40 6 40 6 -37 2 -37 1 15 53 c23 77 97 223 149 292 115 153 273 286
444 374 164 84 320 130 566 165 73 11 363 -4 455 -23z m11534 -240 c38 -42 9
-146 -47 -165 -22 -8 -33 -6 -54 11 -59 43 -50 122 17 155 45 23 63 23 84 -1z
m-9082 -41 c70 -54 14 -164 -74 -145 -36 8 -58 40 -58 86 0 68 78 102 132 59z
m3267 -348 c-16 -63 -27 -125 -24 -140 2 -14 0 -31 -6 -38 -32 -38 -56 -376
-39 -534 13 -125 24 -173 57 -262 42 -114 54 -127 167 -165 188 -64 331 -106
360 -104 16 1 40 -6 54 -15 34 -22 87 -14 204 31 181 70 342 179 497 335 76
77 91 96 74 98 -38 6 -219 -27 -288 -52 -84 -30 -98 -26 -24 8 66 31 156 52
269 65 96 11 90 5 187 151 32 47 62 88 68 92 5 4 7 8 2 8 -17 0 34 78 55 84
29 7 128 8 128 0 0 -25 -25 -44 -58 -46 -37 -1 -37 -1 -4 -5 32 -4 43 -19 20
-28 -7 -3 -40 -9 -73 -13 l-60 -8 58 -8 c31 -4 57 -10 57 -12 0 -8 -71 -117
-103 -157 -16 -21 -27 -40 -25 -43 3 -2 45 -9 94 -15 171 -21 299 -66 380
-132 37 -31 38 -31 13 -38 -13 -4 -44 -7 -68 -8 -98 -2 -281 -144 -341 -265
l-31 -61 73 -7 c94 -9 182 -2 286 23 117 29 124 18 12 -19 -102 -33 -208 -57
-307 -68 -69 -7 -77 -19 -47 -63 25 -35 75 -51 156 -51 99 0 197 29 348 101
160 77 327 189 565 380 105 83 218 174 252 200 55 42 61 49 45 59 -13 9 -3 10
43 5 124 -13 395 -17 395 -6 0 12 -19 17 -95 26 -132 15 -188 18 -181 7 3 -6
23 -8 45 -5 21 3 41 1 44 -4 8 -12 -278 -4 -311 9 l-27 11 25 8 c16 5 -1 6
-42 3 -46 -4 -68 -2 -68 5 0 6 -17 11 -37 10 -21 0 -32 -3 -24 -6 8 -3 -19
-15 -60 -27 -41 -12 -111 -41 -157 -64 l-83 -41 46 52 c25 28 45 55 45 59 0 5
12 9 28 9 16 1 20 3 10 6 -23 6 -23 4 13 69 l32 56 52 -7 c29 -3 77 -5 106 -4
141 6 202 2 301 -20 l106 -24 79 57 c43 31 83 59 88 64 43 33 69 42 117 42
l53 -1 -53 -18 c-56 -19 -172 -93 -210 -134 l-23 -24 43 -11 c54 -14 218 8
285 38 30 13 51 17 66 11 21 -8 20 -10 -25 -55 -40 -41 -50 -46 -67 -37 -23
13 -127 13 -156 1 -18 -8 -18 -9 -2 -9 10 -1 15 -5 12 -11 -8 -12 -11 -13 52
4 51 14 93 12 93 -4 0 -10 -85 -55 -145 -77 -64 -23 -249 -23 -310 -1 l-40 15
-46 -38 c-26 -22 -52 -39 -58 -39 -6 0 -11 -4 -11 -8 0 -10 -314 -259 -449
-356 -269 -192 -527 -313 -756 -352 -97 -17 -175 -10 -222 21 -35 23 -56 72
-50 117 l5 38 -46 -5 c-26 -3 -117 -12 -202 -20 -85 -9 -204 -26 -265 -38 -97
-19 -142 -22 -380 -22 -159 0 -313 5 -375 13 -273 33 -620 99 -598 114 8 4 -5
8 -33 8 -70 0 -329 78 -465 141 -24 10 -45 19 -48 19 -3 0 -99 43 -213 96
-173 80 -388 174 -398 174 -1 0 -13 -28 -25 -62 -96 -266 -228 -370 -374 -297
-27 13 -54 33 -62 44 -23 32 -17 84 17 143 20 36 26 53 16 49 -38 -14 -162
-18 -243 -8 -232 30 -404 116 -404 200 0 38 32 65 110 93 61 22 79 23 310 23
190 0 269 -4 353 -18 60 -10 115 -16 122 -13 28 10 104 146 82 146 -2 0 -24
-7 -47 -15 -65 -23 -140 -20 -181 8 -26 18 -59 63 -75 105 -1 1 -21 -16 -45
-38 -58 -54 -155 -101 -210 -103 -139 -5 -160 76 -89 343 8 29 17 39 47 50
l38 14 -35 6 c-29 4 -35 10 -41 37 -5 25 -3 33 10 36 19 5 -61 -2 -104 -8 -21
-4 -37 -15 -48 -35 -16 -26 -24 -30 -65 -32 l-47 -1 44 -4 c50 -5 50 6 3 -146
-16 -53 -26 -100 -21 -103 16 -10 10 -44 -9 -44 -10 0 -27 -18 -41 -45 -33
-62 -74 -90 -133 -90 -37 0 -52 6 -75 27 l-28 27 -68 -24 c-87 -32 -99 -31
-141 5 l-34 30 -51 -26 c-66 -35 -143 -43 -185 -20 -37 20 -78 76 -96 130 -14
43 -8 139 9 160 6 7 8 15 5 18 -9 10 45 114 74 145 55 57 127 113 140 108 7
-3 10 0 7 5 -4 6 20 23 52 38 106 49 201 28 219 -50 l6 -30 37 35 c20 20 49
41 64 46 24 9 31 8 53 -14 45 -45 20 -95 -49 -95 -14 0 -18 -3 -10 -8 16 -10
-37 -94 -54 -87 -7 2 -13 0 -13 -5 0 -6 4 -10 9 -10 5 0 -2 -33 -17 -72 -30
-88 -36 -195 -11 -211 23 -14 61 -2 111 36 37 28 46 43 67 110 20 62 29 77 45
78 17 1 18 2 4 6 -23 6 -22 16 6 83 l22 55 105 12 104 12 -98 -5 c-93 -5 -98
-4 -89 13 29 54 94 88 184 97 l66 6 -11 -24 c-13 -27 -52 -37 -118 -31 -26 3
-46 0 -54 -9 -12 -11 4 -13 98 -9 62 3 116 9 121 14 6 6 2 9 -10 10 -35 1 49
27 91 28 59 1 112 -40 68 -52 -14 -4 -13 -5 4 -6 45 -2 43 -45 -8 -273 -17
-76 -29 -145 -25 -153 7 -20 68 -20 107 1 55 28 109 84 109 113 0 14 6 52 14
84 12 49 11 57 -1 57 -9 0 -13 8 -11 23 2 16 9 21 24 20 14 -2 25 6 33 25 22
48 78 117 112 136 17 10 29 14 25 7 -8 -13 10 -13 39 -1 18 8 18 9 -5 10 l-25
2 27 9 c33 13 101 -4 129 -32 10 -10 22 -19 25 -19 4 0 12 -8 19 -17 11 -15
15 -12 34 25 30 58 60 75 129 73 31 0 73 -5 92 -10 l35 -8 -27 -7 c-15 -4 -29
-14 -32 -22 -3 -9 -22 -15 -48 -16 -43 -1 -43 -1 -6 -5 l37 -4 -24 -52 c-14
-28 -30 -73 -37 -99 l-12 -48 -45 -2 -46 -1 43 -4 c38 -4 42 -7 37 -26 -16
-64 -34 -162 -31 -165 2 -1 20 20 40 47 20 28 60 71 88 96 36 32 57 61 69 94
9 27 29 69 44 95 24 41 31 46 63 47 24 1 29 3 15 6 -31 6 -29 14 11 40 82 53
226 71 296 35 57 -28 68 -112 17 -132 -12 -5 -15 -9 -7 -9 8 -1 -3 -19 -30
-46 -33 -34 -52 -45 -75 -45 l-30 1 27 23 c18 17 23 27 16 34 -18 18 -1 45 25
39 27 -7 51 10 55 39 4 27 -15 42 -65 50 -37 6 -44 3 -82 -31 -37 -34 -46 -37
-81 -32 -22 3 -43 1 -46 -4 -3 -5 13 -9 35 -9 42 0 51 -9 27 -29 -7 -6 -27
-42 -45 -80 l-32 -69 -52 5 c-38 3 -48 1 -37 -6 8 -6 30 -11 48 -11 21 0 32
-5 32 -15 0 -13 5 -12 38 3 20 9 39 19 42 22 27 28 84 60 105 60 22 0 24 -2
13 -13 -23 -23 -152 -114 -185 -131 -31 -16 -33 -20 -33 -71 0 -43 5 -60 24
-82 22 -25 30 -28 88 -27 101 0 132 16 231 118 60 62 91 103 99 129 7 22 18
41 26 44 8 4 10 8 4 12 -20 12 57 193 81 187 6 -1 9 -1 5 1 -14 8 11 41 46 62
44 28 84 26 156 -4 62 -26 92 -24 119 9 34 41 58 7 60 -87 0 -32 5 -66 11 -76
5 -10 7 -20 5 -23 -2 -2 10 -3 28 -3 61 3 99 36 117 105 14 51 81 232 86 228
1 -2 -11 -54 -27 -116z m4138 -13 c48 -23 54 -35 21 -42 -15 -3 -9 -5 14 -6
26 -1 38 -6 43 -20 3 -10 14 -26 25 -36 24 -22 26 -35 5 -35 -9 0 -20 11 -26
23 -6 13 -24 31 -39 41 -26 15 -32 15 -62 1 -59 -26 -98 -52 -91 -59 4 -4 -29
-6 -72 -4 -68 3 -80 5 -77 20 1 9 -2 19 -8 23 -18 11 -11 45 9 45 11 0 22 -4
25 -9 3 -5 23 7 43 25 61 56 121 66 190 33z m271 -160 c30 2 32 0 20 -19 -11
-17 -24 -20 -83 -22 l-70 -2 63 -3 c60 -4 83 -19 42 -30 -11 -3 -18 -8 -16
-12 2 -3 -27 -7 -65 -7 -43 -1 -67 2 -63 8 4 6 6 31 6 55 l-1 46 67 -8 c37 -4
82 -7 100 -6z m-10098 -54 c-13 -14 -26 -23 -28 -20 -5 5 -24 -39 -42 -100 -9
-30 -10 -30 -75 -27 -59 3 -66 6 -71 28 -8 31 0 49 29 69 17 11 31 13 47 7 18
-7 29 -2 54 21 34 32 61 45 90 46 18 1 18 -1 -4 -24z m-1538 -282 c3 -43 4
-79 3 -80 -4 -8 -133 -12 -144 -5 -8 6 -15 37 -18 76 l-6 66 39 1 c22 1 53 5
69 9 17 4 35 8 41 9 8 1 13 -27 16 -76z m1466 60 c2 -9 -12 -13 -50 -14 -29
-1 -41 -4 -25 -6 15 -2 25 -9 21 -14 -4 -7 7 -9 29 -5 30 5 36 3 41 -18 11
-45 82 -112 148 -139 59 -24 198 -44 198 -28 0 4 17 5 38 3 25 -2 33 0 23 6
-10 7 -10 11 -1 17 22 14 85 24 109 18 l24 -6 -24 -13 c-13 -7 -40 -14 -59
-14 -28 -1 -31 -3 -15 -9 40 -16 -126 -44 -228 -39 -104 6 -202 38 -212 69 -4
11 -16 19 -29 19 -12 0 -27 5 -34 12 -7 7 -24 12 -38 13 -35 0 -53 27 -33 51
9 11 13 34 11 66 l-4 49 53 -3 c31 -2 54 -8 57 -15z m-1438 -245 c48 -162 169
-271 360 -325 54 -15 100 -18 280 -17 197 1 230 3 395 33 256 46 278 48 176
11 -191 -68 -389 -94 -648 -87 -279 8 -434 52 -557 159 -83 72 -169 203 -121
185 8 -4 17 -2 20 3 4 6 -8 10 -25 10 -17 0 -29 4 -25 9 3 5 1 12 -5 16 -18
11 -10 25 15 25 14 0 25 -5 25 -10 0 -6 6 -5 14 2 8 7 12 16 9 21 -2 4 13 7
35 7 37 0 39 -2 52 -42z m9243 -278 c36 0 37 -1 37 -34 0 -48 -16 -86 -53
-123 -25 -27 -39 -33 -76 -34 -46 -2 -46 -2 -11 -9 43 -9 38 -10 -74 -15 l-89
-5 26 20 c18 14 35 19 54 15 20 -4 23 -3 9 3 -17 7 -14 13 28 61 45 50 47 56
41 94 l-7 40 38 -6 c22 -4 56 -7 77 -7z"/>
<path d="M8404 20276 c-17 -8 -42 -29 -55 -47 l-24 -34 0 -2892 0 -2892 21
-27 c11 -15 33 -37 48 -48 27 -21 29 -21 1684 -24 1676 -3 1917 1 2092 33 335
62 657 211 960 444 134 102 373 348 483 496 552 741 764 1727 582 2705 -113
608 -421 1208 -829 1616 -339 339 -753 568 -1171 648 -179 34 -289 36 -2029
36 -1431 -1 -1736 -3 -1762 -14z m3686 -145 c623 -112 1136 -469 1520 -1057
82 -126 243 -445 294 -584 123 -336 193 -699 200 -1035 2 -88 2 -150 -1 -137
-4 22 -6 22 -173 22 -125 0 -170 -3 -174 -12 -4 -7 -4 3 -2 22 l5 35 -13 -28
c-12 -27 -13 -25 -14 29 -21 788 -355 1544 -877 1982 -227 190 -475 315 -745
375 -94 21 -111 21 -1682 24 l-1588 3 -1 -1202 c-1 -662 -5 -1216 -9 -1233
l-8 -30 -2 30 c-2 30 -2 30 -10 5 -4 -14 -8 -19 -9 -12 -1 10 -36 12 -166 10
l-165 -3 0 1408 0 1408 1778 -4 c1304 -3 1794 -7 1842 -16z m-184 -511 c371
-30 675 -178 973 -472 306 -304 538 -749 640 -1228 47 -222 56 -321 55 -630 0
-337 -14 -463 -84 -734 -196 -766 -740 -1387 -1345 -1535 -160 -39 -232 -41
-1715 -41 l-1441 0 2 788 c1 441 5 796 10 807 8 17 9 16 4 -5 -2 -14 -1 -72 2
-130 5 -77 9 -96 14 -70 5 30 7 26 9 -25 1 -46 4 -54 10 -35 6 20 8 16 9 -23
1 -29 7 -55 16 -63 13 -13 15 -86 15 -527 0 -581 -3 -560 80 -604 l43 -23
1318 0 c1360 0 1447 2 1607 41 509 125 962 596 1197 1244 104 287 150 580 149
955 0 474 -78 828 -264 1203 -258 518 -629 859 -1067 980 l-118 32 -1426 3
-1427 2 -31 -26 c-63 -53 -61 -35 -61 -578 0 -426 -2 -497 -15 -510 -9 -8 -15
-34 -16 -63 -1 -39 -3 -43 -9 -23 -7 21 -8 17 -9 -21 -1 -66 -12 -110 -24
-102 -6 4 -8 -23 -5 -78 3 -46 1 -75 -3 -64 -4 11 -8 368 -8 793 l-1 772 1394
0 c866 0 1442 -4 1522 -10z m134 -253 c364 -82 648 -296 901 -680 210 -317
326 -653 374 -1077 13 -121 19 -330 8 -288 -2 9 -11 19 -19 22 -10 4 -14 -3
-15 -22 -2 -23 -2 -24 -6 -4 -4 22 -6 22 -167 22 l-163 0 -7 117 c-21 378
-120 711 -297 1000 -149 243 -351 426 -555 502 -138 52 -112 51 -1345 51
l-1149 0 0 -835 0 -835 -167 -1 c-93 -1 -173 -1 -180 0 -6 1 -14 -9 -16 -21
-2 -13 -5 449 -6 1025 l-1 1048 1368 -4 c1236 -3 1374 -5 1442 -20z"/>
<path d="M22425 11935 c-42 -44 -83 -149 -225 -580 -61 -187 -114 -347 -117
-355 -8 -21 199 238 273 343 34 48 65 101 69 117 4 16 17 38 30 48 39 31 95
142 88 176 -5 23 -1 33 18 47 20 15 24 28 27 87 4 69 4 70 -33 111 -49 54 -84
55 -130 6z"/>
<path d="M23170 11870 c-101 -103 -230 -304 -295 -458 -40 -95 -44 -111 -15
-64 11 18 87 102 170 188 82 85 150 159 150 164 0 6 -9 10 -19 10 -26 0 -38
38 -18 57 18 19 57 8 57 -15 1 -36 42 63 47 114 5 46 3 54 -11 54 -10 0 -39
-22 -66 -50z"/>
<path d="M23731 11060 c-65 -47 -127 -159 -146 -263 -6 -33 -5 -37 14 -37 30
0 56 -43 41 -69 -6 -12 -20 -21 -30 -21 -24 0 -25 -11 -5 -50 19 -37 62 -70
91 -70 30 0 95 58 127 113 36 62 41 84 23 103 -11 10 -14 24 -10 42 9 35 9 35
32 23 19 -10 21 -7 31 40 15 69 14 123 -4 165 -8 20 -12 40 -9 45 3 5 -21 9
-54 9 -50 0 -65 -5 -101 -30z"/>
<path d="M14605 11071 c-16 -10 -41 -30 -54 -45 -20 -21 -34 -26 -80 -28 l-56
-2 52 -3 53 -4 -28 -42 c-15 -23 -31 -45 -37 -49 -5 -4 -7 -8 -2 -8 4 0 -2
-18 -13 -40 -19 -38 -23 -40 -65 -40 -25 0 -45 -4 -45 -9 0 -5 19 -7 42 -4 37
5 41 4 34 -12 -33 -87 -33 -207 0 -232 26 -20 77 -10 132 24 42 26 46 33 63
100 10 40 23 81 28 92 10 17 7 20 -17 23 -21 2 -27 8 -27 28 0 19 6 26 24 28
13 2 28 -2 32 -10 7 -10 11 -11 17 0 5 7 38 17 73 21 53 7 57 9 24 10 -75 4
-79 10 -46 62 34 54 32 89 -7 132 -30 32 -56 34 -97 8z"/>
<path d="M15990 11024 c-84 -53 -168 -320 -130 -418 13 -35 52 -43 101 -21 29
14 39 24 39 42 0 13 -6 23 -14 23 -18 0 -29 31 -20 54 3 9 17 16 29 16 20 0
26 9 41 58 9 31 19 94 22 140 4 70 2 86 -13 102 -22 24 -23 24 -55 4z"/>
<path d="M17243 10993 c12 -12 -46 -63 -70 -63 -14 0 -21 -4 -18 -10 3 -5 2
-10 -4 -10 -5 0 -13 5 -16 10 -3 6 -25 9 -48 9 l-42 -1 38 -8 c20 -4 40 -10
43 -13 9 -9 -43 -171 -72 -230 -29 -57 -87 -123 -125 -143 -36 -18 -92 -18
-129 1 -26 14 -32 13 -82 -10 -121 -57 -284 -11 -338 95 -11 22 -23 67 -27
100 l-6 61 -44 -43 c-60 -58 -129 -164 -153 -234 -33 -95 -40 -90 123 -97 78
-4 185 -14 237 -23 52 -8 113 -17 135 -21 61 -8 245 -56 404 -104 l143 -44
-83 -3 c-46 -2 -89 -8 -96 -14 -17 -13 -151 -2 -207 19 -73 26 -288 85 -401
109 -141 30 -300 43 -293 24 2 -8 17 -18 34 -23 57 -18 409 -159 418 -168 6
-5 -2 -9 -19 -9 -49 0 -20 -11 31 -12 27 0 65 -9 84 -18 72 -37 298 -129 425
-174 72 -26 142 -53 157 -61 29 -17 52 -20 28 -5 -13 9 106 16 215 13 17 0 64
-1 105 -3 41 -1 86 -1 100 0 24 2 24 2 -5 12 -37 13 -565 207 -585 215 -11 4
-8 8 10 12 25 7 25 7 3 13 -13 3 -42 4 -65 2 -30 -3 -37 -2 -23 4 19 9 19 9
-5 18 -18 6 13 10 110 14 104 4 145 2 180 -10 l45 -15 -52 -3 c-55 -3 -75 -22
-24 -22 16 0 31 -5 33 -11 3 -8 10 -6 20 5 19 18 69 21 85 5 7 -7 22 -13 35
-14 13 -2 34 -8 48 -13 20 -9 8 -11 -59 -11 -46 -1 -81 -4 -77 -8 4 -5 55 -8
112 -8 89 0 103 2 98 15 -3 8 -15 49 -27 90 -29 104 -30 406 -3 593 11 70 17
130 14 132 -3 3 -38 -10 -79 -30 -85 -40 -134 -45 -173 -14 -33 26 -33 39 2
40 24 2 24 2 -8 9 -28 7 -22 8 32 7 38 0 71 3 75 6 3 4 -25 7 -64 7 -55 0 -72
3 -77 16 -12 31 -6 43 27 47 27 3 25 4 -12 5 -24 1 -41 -1 -38 -5z"/>
<path d="M15200 10390 c-49 -8 -105 -30 -133 -52 -18 -14 -18 -15 6 -44 35
-41 105 -78 212 -110 81 -24 106 -27 248 -28 l159 -1 73 80 c86 94 85 97 -45
103 -76 3 -174 -10 -245 -33 -11 -3 6 9 37 27 32 18 58 36 58 39 0 8 -212 29
-276 28 -27 -1 -69 -5 -94 -9z"/>
<path d="M19140 10305 c-19 -21 -21 -27 -10 -40 11 -13 11 -19 -3 -33 -13 -12
-20 -13 -28 -5 -9 9 -37 -11 -114 -85 -130 -123 -240 -202 -382 -274 l-113
-56 68 -9 c105 -13 418 -9 500 6 66 12 74 16 89 44 55 107 195 235 326 297 72
34 76 38 60 52 -30 26 -93 54 -193 86 -143 44 -172 47 -200 17z"/>
<path d="M15818 10240 c-42 -39 -95 -98 -118 -132 -35 -53 -41 -68 -38 -107
l3 -46 45 -3 c37 -2 51 2 80 26 32 28 34 31 21 55 -19 35 -6 67 30 74 36 7 42
17 67 115 17 66 18 78 5 82 -8 3 -15 6 -16 6 -1 0 -37 -32 -79 -70z"/>
<path d="M17488 9862 c-85 -3 -102 -16 -37 -27 30 -5 38 -10 28 -16 -10 -6 -3
-9 21 -8 19 1 85 -8 145 -19 266 -52 321 -57 577 -57 161 0 244 -3 241 -10 -3
-5 0 -4 8 3 7 6 22 12 34 12 19 1 19 1 1 12 -14 8 -78 9 -215 5 -238 -8 -335
7 -469 73 -81 40 -86 41 -170 38 -48 -2 -122 -4 -164 -6z"/>
</g>
</svg>
